<?xml version="1.0" encoding="UTF-8"?>
<svg version="1.1" xmlns="http://www.w3.org/2000/svg" width="1500" height="727">
<path d="M0 0 C1.91507432 -0.00076488 3.83014848 -0.00284079 5.74522018 -0.00610065 C10.90928386 -0.01111823 16.07314591 0.00236329 21.23717737 0.01947093 C26.74615662 0.03452722 32.25513354 0.03235551 37.76412964 0.03248596 C48.33769339 0.03557984 58.91116227 0.05501717 69.48469198 0.08109063 C77.96549948 0.10177557 86.44629828 0.11654382 94.92712402 0.12728882 C125.28643586 0.16629341 155.64554327 0.2370003 186.00471497 0.33687592 C190.73605731 0.35241259 195.46740165 0.36707122 200.19874823 0.38125193 C218.77060147 0.43702003 237.341955 0.51602824 255.91345978 0.64692688 C259.24118643 0.66879435 262.56890732 0.68590596 265.89666748 0.70178223 C270.9686803 0.7269933 276.0403545 0.76681057 281.11215591 0.81937981 C282.87579745 0.83575361 284.63948877 0.84765317 286.40319443 0.85412788 C303.97085786 0.92628464 321.4971061 2.2041544 334.90869141 14.87988281 C348.66920205 31.06571536 347.44907243 52.43722119 347.34228516 72.35253906 C347.33921861 74.87435289 347.33734931 77.39616843 347.33660889 79.91798401 C347.33202621 85.18878698 347.3180923 90.45947227 347.29541016 95.73022461 C347.26668807 102.41647984 347.25620815 109.10258754 347.25172806 115.78890896 C347.24651547 122.24763399 347.23202328 128.70633004 347.21728516 135.16503906 C347.21540443 136.36281919 347.21352371 137.56059933 347.211586 138.79467583 C347.17939901 154.6717994 346.80698883 170.49851459 346.01416016 186.35644531 C346.94371552 186.04336599 346.94371552 186.04336599 347.89204979 185.72396183 C348.70404146 185.4516244 349.51603313 185.17928698 350.35263062 184.8986969 C351.15795919 184.62810235 351.96328777 184.3575078 352.79302025 184.07871342 C379.25253619 175.47463388 408.58491759 177.06927437 436.01416016 177.35644531 C437.54614356 181.29556216 436.42451044 183.93013784 435.08447266 187.82470703 C434.86336823 188.47777958 434.64226379 189.13085213 434.41445923 189.80371475 C433.92593456 191.24242555 433.43252035 192.67948278 432.93493652 194.1150856 C432.11907799 196.46907572 431.31558904 198.8269781 430.51513672 201.18624878 C429.6379294 203.77082265 428.75973819 206.35503129 427.87780762 208.93799782 C424.46955892 218.92151959 421.15380596 228.93544376 417.83474731 238.94889069 C416.03504848 244.37506142 414.22946089 249.79927179 412.42431641 255.22363281 C410.19974668 261.90925031 407.97602117 268.5951438 405.75585938 275.28222656 C403.9226877 280.80351321 402.08656156 286.32380933 400.24841309 291.84344101 C399.55845783 293.91697028 398.86954941 295.99084822 398.1817627 298.06509781 C397.22636771 300.94587425 396.26717972 303.82536223 395.30712891 306.70458984 C394.89411781 307.95440895 394.89411781 307.95440895 394.47276306 309.22947693 C392.53281657 315.02925218 390.33784221 320.69996867 388.01416016 326.35644531 C388.67416016 326.35644531 389.33416016 326.35644531 390.01416016 326.35644531 C390.25263672 325.67195313 390.49111328 324.98746094 390.73681641 324.28222656 C392.27342449 320.7625952 394.31634313 317.71646153 396.45166016 314.54394531 C401.94095604 306.21704215 407.06158503 297.68757271 412.13916016 289.10644531 C412.54457031 288.42145966 412.94998047 287.736474 413.36767578 287.0307312 C418.89656687 277.68175741 424.39038697 268.31219569 429.87838745 258.93917847 C432.30160615 254.80126158 434.72731078 250.66480328 437.15380859 246.52880859 C438.32254362 244.53582396 439.49004675 242.54211588 440.65576172 240.54736328 C446.58287781 230.42108123 452.78258381 220.51338727 459.26416016 210.73144531 C459.91392822 209.74748779 460.56369629 208.76353027 461.2331543 207.74975586 C470.58007762 193.79052785 470.58007762 193.79052785 476.01416016 188.35644531 C478.15974842 188.26868926 480.30820437 188.24949312 482.45556641 188.25878906 C483.76074219 188.26201172 485.06591797 188.26523437 486.41064453 188.26855469 C487.79931705 188.2769113 489.18798893 188.28537626 490.57666016 188.29394531 C491.96923671 188.29895865 493.36181497 188.30352185 494.75439453 188.30761719 C498.17435886 188.31945097 501.5942386 188.33593651 505.01416016 188.35644531 C504.37384613 194.96385395 502.35710951 200.97279544 500.28759766 207.25878906 C499.90775726 208.42893051 499.52791687 209.59907196 499.13656616 210.80467224 C498.31832265 213.32402494 497.49817839 215.84265946 496.67468262 218.36029053 C494.71713335 224.34615629 492.77663378 230.33755366 490.83618164 236.32897949 C490.39639497 237.68676986 489.95641184 239.0444966 489.51623535 240.40216064 C484.55476501 255.7080358 479.75443234 271.06295232 475 286.43432617 C474.43726171 288.24958924 473.87427907 290.06477657 473.31103516 291.87988281 C473.04364532 292.74394241 472.77625549 293.60800201 472.50076294 294.49824524 C471.0719428 299.08305711 469.58976764 303.64414793 468.03955078 308.18945312 C467.71432434 309.14526276 467.3890979 310.10107239 467.05401611 311.08584595 C466.42954836 312.91020568 465.79837574 314.73228918 465.15936279 316.55160522 C463.17680176 322.30487931 463.17680176 322.30487931 463.01416016 328.35644531 C463.97901643 326.90916091 464.94387151 325.46187571 465.90872192 324.0145874 C466.7811601 322.7059405 467.65361763 321.3973065 468.52609253 320.08868408 C470.98512625 316.40032148 473.44380155 312.71172073 475.90185547 309.02270508 C480.63791383 301.91563047 485.37683728 294.81056701 490.13134766 287.71582031 C491.67627084 285.40896471 493.22052952 283.10166601 494.76416016 280.79394531 C495.13692078 280.23674805 495.5096814 279.67955078 495.89373779 279.10546875 C500.20884284 272.64876853 504.44626595 266.15917841 508.51416016 259.54394531 C512.58890687 252.9241854 516.97070509 246.58917204 521.5703125 240.32421875 C523.20024481 238.10283653 524.81980082 235.87404051 526.43994141 233.64550781 C564.69850853 181.18282069 564.69850853 181.18282069 590.58056641 175.82519531 C596.86239503 174.98122444 602.60648413 175.06449753 607.99462891 178.68847656 C611.12408726 181.23721068 613.65150822 183.46930137 615.01416016 187.35644531 C614.63916016 190.10644531 614.63916016 190.10644531 614.01416016 192.35644531 C613.33611328 192.31003906 612.65806641 192.26363281 611.95947266 192.21582031 C597.62280973 191.65982784 586.3558404 199.12196984 576.01416016 208.54394531 C564.6821946 219.16300274 555.25897983 230.92850525 546.01416016 243.35644531 C545.44262207 244.11908691 544.87108398 244.88172852 544.28222656 245.66748047 C535.52972671 257.34807159 527.18535432 269.26423446 519.01416016 281.35644531 C469.83580344 353.94562367 469.83580344 353.94562367 461.01416016 358.35644531 C456.73114937 358.59045087 452.4444002 358.58480528 448.15576172 358.59667969 C446.02223056 358.60640851 443.88965359 358.63744287 441.75634766 358.66894531 C440.40479089 358.67547322 439.05322722 358.68072452 437.70166016 358.68457031 C436.46802734 358.69391602 435.23439453 358.70326172 433.96337891 358.71289062 C432.50351563 358.5364502 432.50351563 358.5364502 431.01416016 358.35644531 C430.35416016 357.36644531 429.69416016 356.37644531 429.01416016 355.35644531 C429.67460239 352.48811126 430.45219672 349.86035675 431.40478516 347.08691406 C431.69234177 346.21487335 431.97989838 345.34283264 432.27616882 344.44436646 C433.25954914 341.47320672 434.26208211 338.50884641 435.26416016 335.54394531 C435.96664983 333.4319701 436.66786498 331.3195706 437.36791992 329.20678711 C439.18704683 323.72827193 441.01950833 318.25431229 442.85728741 312.78203487 C444.68050718 307.35260825 446.49947923 301.92177 448.31640625 296.49023438 C448.60265554 295.63452064 448.88890484 294.7788069 449.18382835 293.89716244 C450.66143896 289.47918921 452.13820787 285.06093589 453.61398315 280.64234924 C453.90760427 279.76324355 454.2012254 278.88413786 454.50374413 277.9783926 C455.09725859 276.20134781 455.69072503 274.42428699 456.28414345 272.64721012 C458.05711175 267.33978449 459.8359208 262.03436005 461.61941051 256.73046112 C462.74620228 253.37717857 463.86940089 250.02269948 464.99186134 246.66796494 C465.51984652 245.09271801 466.04941629 243.51800122 466.58066368 241.94385147 C467.31387393 239.77065799 468.04147001 237.59565955 468.76782227 235.42016602 C469.17922958 234.1956221 469.5906369 232.97107819 470.01451111 231.70942688 C470.94486276 228.58887977 471.56146133 225.57731667 472.01416016 222.35644531 C471.61849854 223.05801758 471.22283691 223.75958984 470.81518555 224.48242188 C462.48908332 239.21808337 453.99895865 253.82770262 445.16503906 268.26489258 C441.39200395 274.43255463 437.662799 280.62063179 434.01660156 286.86425781 C423.41601591 305.01590026 412.43167472 322.98966458 399.43310547 339.5390625 C397.9369296 341.45536208 396.47035191 343.3920429 395.00634766 345.33300781 C394.03047143 346.61217749 393.05393457 347.89084351 392.07666016 349.16894531 C391.63990967 349.7505542 391.20315918 350.33216309 390.75317383 350.93139648 C388.14039612 354.29874157 385.82638829 356.46542374 382.01416016 358.35644531 C379.18334961 358.71289062 379.18334961 358.71289062 376.12744141 358.68457031 C375.02464844 358.67941406 373.92185547 358.67425781 372.78564453 358.66894531 C371.64417969 358.64832031 370.50271484 358.62769531 369.32666016 358.60644531 C368.17359375 358.60128906 367.02052734 358.59613281 365.83251953 358.59082031 C357.32320454 358.5109675 357.32320454 358.5109675 355.01416016 357.35644531 C355.64034141 351.29575062 357.33157265 345.87441552 359.28613281 340.11816406 C359.62306656 339.1099913 359.96000031 338.10181854 360.30714417 337.06309509 C361.42533778 333.72150748 362.55189917 330.38280048 363.67822266 327.04394531 C364.47102871 324.67810501 365.2632021 322.31205261 366.05477905 319.94580078 C368.1515438 313.68214872 370.25491498 307.42073398 372.36029053 301.15997314 C376.07841185 290.10313919 379.78703366 279.04312112 383.49072266 267.98144531 C384.09320705 266.18303696 384.09320705 266.18303696 384.70786285 264.34829712 C392.71606929 240.42673672 400.43271391 216.41631478 408.01416016 192.35644531 C407.23819489 192.51662643 406.46222961 192.67680756 405.66275024 192.84184265 C403.13842805 193.33230092 400.7264365 193.58425367 398.16259766 193.75097656 C388.66628753 194.43052599 379.28429166 195.2279679 369.95166016 197.16894531 C369.25282715 197.30985596 368.55399414 197.4507666 367.83398438 197.59594727 C362.99449616 198.6708278 358.37525878 200.25020514 353.71948242 201.93725586 C353.0730201 202.16989891 352.42655777 202.40254196 351.76050568 202.6422348 C350.17781892 203.21205322 348.59590976 203.78403061 347.01416016 204.35644531 C346.98323776 205.32060867 346.95231537 206.28477203 346.92045593 207.27815247 C344.67435775 277.11497528 342.10768337 346.70341128 333.45166016 416.10644531 C333.31077972 417.2627948 333.31077972 417.2627948 333.16705322 418.44250488 C330.32296102 441.51938765 325.65023045 465.62469766 307.01416016 481.35644531 C295.37075069 489.89494559 282.0053948 493.147303 268.01416016 495.35644531 C268.01416016 501.68712869 276.67005321 509.27027295 280.82666016 513.60644531 C285.76614819 518.37951874 291.04038621 521.99727967 297.01416016 525.35644531 C297.77986328 525.79472656 298.54556641 526.23300781 299.33447266 526.68457031 C303.21193502 528.76131287 307.1132914 530.42305742 311.27978516 531.82128906 C312.0382373 532.07644287 312.79668945 532.33159668 313.578125 532.59448242 C315.08865585 533.09251398 316.60458345 533.57453932 318.12597656 534.03833008 C322.76972022 535.54916989 325.44088671 536.96401968 328.01416016 541.35644531 C328.90953757 545.47377135 328.38778561 549.28227214 327.01416016 553.23144531 C319.48583171 561.23029428 301.13772478 562.08250305 290.75097656 562.48193359 C286.85921168 562.56355747 282.96914134 562.60303673 279.07666016 562.60644531 C278.03928711 562.60745743 278.03928711 562.60745743 276.98095703 562.60848999 C240.28720535 562.55163423 210.1682172 547.49095177 184.32666016 521.91894531 C183.72104248 521.32267334 183.1154248 520.72640137 182.49145508 520.11206055 C179.85133454 517.45333501 177.39539306 514.9228923 175.29562378 511.80299377 C171.82975017 506.57550734 171.82975017 506.57550734 166.55479431 503.55561829 C163.61268068 503.38820543 160.84344577 503.54584991 157.90869141 503.81738281 C156.77271011 503.87610565 155.63672882 503.93482849 154.46632385 503.99533081 C151.26408805 504.16392882 148.0674753 504.37523828 144.86864471 504.59773254 C139.09956089 504.97550238 133.32105571 505.20286461 127.54514313 505.44892883 C125.92114651 505.5182241 124.29721963 505.58917115 122.67336273 505.66166687 C96.91953704 506.79801922 71.13849262 506.63013595 45.36516953 506.60767365 C41.39956238 506.60644853 37.43401431 506.61153477 33.46841431 506.61883545 C27.12597418 506.63049774 20.78362165 506.63176295 14.44117546 506.6244545 C12.08200014 506.6228882 9.72282063 506.62428922 7.36364937 506.62893295 C-37.36981664 506.69916201 -37.36981664 506.69916201 -52.98583984 492.35644531 C-56.0224261 488.88976237 -58.56462217 485.27360983 -60.98583984 481.35644531 C-61.45634766 480.59976562 -61.92685547 479.84308594 -62.41162109 479.06347656 C-68.75130435 467.6598977 -71.00941145 454.27172338 -72.92333984 441.52441406 C-73.17924644 439.83604683 -73.17924644 439.83604683 -73.44032288 438.11357117 C-75.38930437 424.99955417 -76.93555918 411.84200986 -78.42333984 398.66894531 C-78.57235748 397.35830109 -78.72137512 396.04765686 -78.87490845 394.69729614 C-83.16896951 356.86150721 -86.57914429 318.97230215 -89.17333984 280.98144531 C-89.25224457 279.84754364 -89.33114929 278.71364197 -89.41244507 277.54537964 C-90.0129717 268.81972522 -90.52348431 260.09035646 -90.98583984 251.35644531 C-91.05072287 250.1461969 -91.05072287 250.1461969 -91.11691666 248.91149902 C-93.00113732 213.4635538 -93.33259999 178.04704779 -93.29952019 142.56019771 C-93.29550552 136.76664422 -93.31035 130.9732439 -93.32908374 125.17972541 C-93.34684338 119.46803962 -93.35268169 113.75642077 -93.349446 108.04470849 C-93.34766753 104.686163 -93.35132094 101.32789236 -93.36416054 97.96935272 C-93.45760471 70.21364866 -92.740136 42.24723446 -72.92333984 20.66894531 C-53.3071044 2.08339342 -25.64073823 -0.14011587 0 0 Z " fill="#CD7886" transform="translate(190.98583984375,81.6435546875)"/>
<path d="M0 0 C19.14 0 38.28 0 58 0 C63.65130961 33.86515253 63.65130961 33.86515253 65.67358398 45.99023438 C65.80229979 46.76198281 65.9310156 47.53373125 66.06363189 48.328866 C74.53374077 99.11474283 82.99956666 149.90132165 91.39210892 200.70008469 C91.9368833 203.99626862 92.48226063 207.29235227 93.02780151 210.58840942 C93.87458783 215.70515742 94.71976545 220.8221684 95.56356812 225.93940926 C95.86736345 227.78048133 96.17165597 229.62147144 96.47650146 231.46236992 C96.8880791 233.94862981 97.29769574 236.43520499 97.70678711 238.921875 C97.82450438 239.63033853 97.94222166 240.33880205 98.06350613 241.06873417 C98.82295988 245.70276041 99.44095192 250.33860009 100 255 C103.82003852 232.8184135 107.58903886 210.62898979 111.29000401 188.42723298 C111.66880331 186.15516549 112.0478357 183.883137 112.42693901 181.61112022 C113.76272441 173.60554534 115.09771088 165.59983774 116.43188477 157.59399414 C117.6551098 150.25404249 118.88015027 142.91439539 120.10602671 135.57488614 C121.1774675 129.15949369 122.24759931 122.74388371 123.31678861 116.32811564 C123.94711948 112.54588111 124.57790038 108.76372337 125.21003914 104.98179054 C126.4814235 97.37308558 127.74460671 89.76315454 128.98891306 82.14996988 C129.68406988 77.90252514 130.39407327 73.65781635 131.11212033 69.41418439 C131.60051994 66.51115145 132.077772 63.60635563 132.55253398 60.70106447 C132.77781203 59.33636077 133.00749212 57.97237459 133.24210656 56.60924494 C135.24907408 44.9231722 134.81608418 34.88929219 132.3125 23.375 C131.84063383 20.94305566 131.38368647 18.50861882 130.92778015 16.07363892 C130.64572899 14.59747033 130.35182961 13.12348828 130.04304504 11.65267944 C129.1956746 7.56672621 129 4.26674211 129 0 C148.14 0 167.28 0 187 0 C189.30291016 13.81746094 189.30291016 13.81746094 191.65234375 27.9140625 C192.17948471 31.07681763 192.70662567 34.23957275 193.2497406 37.49816895 C195.77042092 52.62182473 198.29089929 67.74551413 200.8109113 82.86928129 C202.05095677 90.31130293 203.2910904 97.75330988 204.53125 105.1953125 C204.6686959 106.02011329 204.80614179 106.84491407 204.94775271 107.69470882 C208.53555818 129.22460666 212.12667746 150.75394549 215.72392082 172.28226852 C216.91155624 179.39072893 218.09840568 186.49932061 219.28525639 193.60791206 C220.37599088 200.14011216 221.46815202 206.6720717 222.56135368 213.20385933 C223.22977057 217.19962223 223.89685987 221.1956059 224.56356812 225.19165421 C224.86729627 227.01038315 225.17158609 228.8290184 225.47650146 230.64754868 C225.88809664 233.10267532 226.2976856 235.55812867 226.70678711 238.01367188 C226.82450438 238.71278498 226.94222166 239.41189808 227.06350613 240.13219643 C227.82905959 244.74470781 228.44427219 249.35867846 229 254 C230.66615368 252.33384632 230.50216798 250.18717035 230.82420349 247.89930725 C230.97960885 246.81698791 231.13501421 245.73466856 231.29512882 244.61955166 C231.54433913 242.84926397 231.54433913 242.84926397 231.79858398 241.04321289 C233.76446781 227.43350622 235.94817517 213.86967289 238.22265625 200.30859375 C238.61335255 197.97217902 239.00401234 195.63575819 239.39463806 193.29933167 C240.20365599 188.4649401 241.01486936 183.63092272 241.82739258 178.79711914 C242.8645458 172.62430681 243.89328117 166.45012185 244.92012882 160.27558804 C245.71964392 155.47662074 246.52494618 150.67863763 247.33184624 145.88090706 C247.71387507 143.60362833 248.09381426 141.32599796 248.47154427 139.04800224 C248.99845427 135.8739609 249.53352478 132.70139501 250.07055664 129.52905273 C250.22179993 128.60689468 250.37304321 127.68473663 250.52886963 126.7346344 C252.66909481 114.23256536 255.88669875 104.52556635 266.01953125 96.31640625 C272.29805404 92.14310806 278.66168546 90.86682583 286 90 C284.41947989 104.33968707 282.03295385 118.54714401 279.68842745 132.77766395 C279.11586446 136.2561545 278.54638755 139.73515062 277.97640991 143.21406555 C277.01865988 149.05672229 276.05841899 154.89896549 275.09667969 160.7409668 C273.99467493 167.43520545 272.89676209 174.1301054 271.80104125 180.82537526 C270.73568247 187.33442791 269.66721371 193.84296668 268.59745407 200.35129738 C268.14759371 203.08857867 267.69878289 205.82602868 267.25090408 208.56363487 C265.12089546 221.57700161 262.94843659 234.57101222 260.4299221 247.51536369 C258.5478735 257.22581805 256.94066638 266.98011002 255.328125 276.73828125 C254.9977538 278.72612531 254.66716258 280.71393282 254.33636475 282.70170593 C253.47937035 287.85495671 252.62530178 293.00868792 251.77191162 298.16253662 C250.74036943 304.38834192 249.70507052 310.61352355 248.67042542 316.83881378 C247.11079012 326.22540968 245.55583047 335.61276915 244 345 C224.86 345 205.72 345 186 345 C181.6875 318.4375 181.6875 318.4375 180.34643555 310.15014648 C179.98507766 307.93209397 179.62351818 305.71407428 179.26171875 303.49609375 C178.99325134 301.82987976 178.99325134 301.82987976 178.71936035 300.13000488 C177.76548795 294.29867757 176.71523182 288.50305658 175.53222656 282.71362305 C174.02465792 275.28589705 172.77179897 267.83510354 171.5827198 260.35142136 C171.2103407 258.00844929 170.83415847 255.66611252 170.45713806 253.32388306 C169.52154438 247.5069757 168.59190927 241.68911983 167.66253662 235.87121582 C166.74847131 230.15057498 165.831655 224.43038593 164.91015625 218.7109375 C164.71888059 217.52322187 164.71888059 217.52322187 164.52374077 216.31151199 C162.9515802 206.57339723 161.28298746 196.86810369 159.37432861 187.18933105 C157.4042573 177.13180278 155.88004591 167.00153367 154.3125 156.875 C153.85211441 153.9081778 153.39066953 150.94153787 152.92607117 147.97537231 C152.64083601 146.15388771 152.35801042 144.33202362 152.07795715 142.50973511 C151.95079819 141.69683014 151.82363922 140.88392517 151.69262695 140.04638672 C151.58255814 139.33473358 151.47248932 138.62308044 151.35908508 137.88986206 C151.00300472 135.78637694 151.00300472 135.78637694 150 133 C148.78780468 140.19542642 147.57985902 147.39155807 146.37451172 154.58813477 C145.96625048 157.02285926 145.55710781 159.45743617 145.14697266 161.8918457 C144.54863003 165.44441318 143.95374699 168.99754752 143.359375 172.55078125 C143.18315613 173.59261063 143.00693726 174.63444 142.82537842 175.70783997 C141.69164798 182.50879448 140.65477707 189.318606 139.66044712 196.14117336 C137.35047337 211.97325163 134.74374087 227.7447043 132.05078125 243.515625 C131.58745626 246.2402729 131.12505131 248.9650767 130.66264343 251.68988037 C129.58243019 258.05234851 128.49952752 264.41435532 127.4154312 270.77616286 C125.46713062 282.2099736 123.52370699 293.644614 121.58109921 305.07939315 C121.01235084 308.42667716 120.44306094 311.77386747 119.87258339 315.12085724 C119.24025088 318.83077274 118.60894671 322.54086203 117.9777832 326.25097656 C117.79129715 327.342883 117.6048111 328.43478943 117.41267395 329.55978394 C117.24038269 330.57374237 117.06809143 331.58770081 116.89057922 332.63238525 C116.74183507 333.50528324 116.59309092 334.37818123 116.43983936 335.27753067 C115.91732014 338.51176268 115.46332026 341.7567582 115 345 C95.86 345 76.72 345 57 345 C50.90900849 310.09206657 45.01674616 275.16174283 39.3293457 240.1862793 C38.35393153 234.19033891 37.37617866 228.19478005 36.3984375 222.19921875 C36.20685814 221.02435284 36.01527878 219.84948692 35.81789398 218.63901901 C34.03062907 207.67948097 32.2426381 196.72006179 30.45132446 185.76118469 C30.16302795 183.99739836 29.87483035 182.23359586 29.58676147 180.46977234 C28.79658915 175.63276441 28.00160269 170.79658145 27.203125 165.9609375 C27.03165955 164.91128815 26.86019409 163.86163879 26.68353271 162.78018188 C25.75964245 157.21586557 24.75034187 151.6739502 23.67411804 146.13746738 C20.96709065 132.18735835 18.64869225 118.17844089 16.35391331 104.15552974 C15.89506997 101.35369995 15.43450118 98.55215482 14.97395396 95.75060469 C13.88892063 89.15012913 12.80657191 82.5492175 11.72607422 75.94799805 C10.61396141 69.15388824 9.49750457 62.36050219 8.37894845 55.56745046 C7.41263962 49.69818004 6.44880746 43.82850671 5.48701072 37.9584952 C4.91499622 34.46747875 4.34209038 30.97661488 3.76685333 27.48612785 C3.12902603 23.61495931 2.49638081 19.74295391 1.86425781 15.87084961 C1.67417648 14.72132813 1.48409515 13.57180664 1.28825378 12.38745117 C1.11733719 11.33528915 0.94642059 10.28312714 0.77032471 9.19908142 C0.62065876 8.28612777 0.47099281 7.37317411 0.31679153 6.4325552 C0 4 0 4 0 0 Z " fill="#FEFEFE" transform="translate(163,166)"/>
<path d="M0 0 C1.19012695 -0.00193359 1.19012695 -0.00193359 2.40429688 -0.00390625 C3.64083008 0.00189453 3.64083008 0.00189453 4.90234375 0.0078125 C5.73056641 0.00394531 6.55878906 0.00007813 7.41210938 -0.00390625 C8.60030273 -0.00197266 8.60030273 -0.00197266 9.8125 0 C10.89930054 0.00169189 10.89930054 0.00169189 12.00805664 0.00341797 C13.83984375 0.1328125 13.83984375 0.1328125 15.83984375 1.1328125 C15.26337845 4.70587635 14.33592565 7.43499218 12.57421875 10.58984375 C11.86761108 11.86867432 11.86761108 11.86867432 11.14672852 13.17333984 C10.63295654 14.08809082 10.11918457 15.0028418 9.58984375 15.9453125 C8.48909499 17.93332344 7.38885182 19.92161438 6.2890625 21.91015625 C5.71849121 22.93737793 5.14791992 23.96459961 4.56005859 25.02294922 C1.80717082 29.99971397 -0.89459542 35.00386357 -3.59765625 40.0078125 C-4.689971 42.02611374 -5.78241968 44.04434251 -6.875 46.0625 C-7.68880127 47.56635254 -7.68880127 47.56635254 -8.51904297 49.10058594 C-11.77183607 55.1106559 -15.02754832 61.11914501 -18.28271484 67.12792969 C-21.00454686 72.15247253 -23.72566854 77.17739744 -26.4453125 82.203125 C-26.98736328 83.2041626 -27.52941406 84.2052002 -28.08789062 85.23657227 C-29.17271784 87.24146127 -30.25606566 89.24715151 -31.33789062 91.25366211 C-34.0062075 96.19515476 -36.70402672 101.11561414 -39.46875 106.00390625 C-50.3676076 123.52248689 -50.3676076 123.52248689 -52.16015625 143.1328125 C-51.32682292 145.6328125 -51.32682292 145.6328125 -49.16015625 147.1328125 C-43.77099269 148.20845003 -39.01587493 147.25951496 -34.26953125 144.6015625 C-29.86515223 141.5348097 -26.0234985 137.8421567 -22.16015625 134.1328125 C-21.25265625 133.2871875 -20.34515625 132.4415625 -19.41015625 131.5703125 C-14.27414265 126.00629777 -10.51790884 120.06875623 -6.91015625 113.4453125 C5.40645265 91.08604959 24.35386573 71.41106774 49.1328125 63.390625 C55.9939623 61.61765532 64.23630805 60.4317979 70.77734375 63.6953125 C74.45777959 66.62463899 75.8141345 68.92557022 77.83984375 73.1328125 C78.16984375 73.7928125 78.49984375 74.4528125 78.83984375 75.1328125 C84.51349924 65.01435777 90.09533389 54.84973041 95.58984375 44.6328125 C96.46564087 43.00472656 96.46564087 43.00472656 97.35913086 41.34375 C100.16752189 36.11841056 102.97065935 30.89031465 105.7649231 25.65740967 C106.72990807 23.85111015 107.69626337 22.04555089 108.66308594 20.24023438 C109.88141405 17.96440513 111.09702718 15.68711982 112.30957031 13.40820312 C112.85967773 12.38146484 113.40978516 11.35472656 113.9765625 10.296875 C114.45826904 9.39404785 114.93997559 8.4912207 115.4362793 7.56103516 C116.7749708 5.2450453 118.08562829 3.15340777 119.83984375 1.1328125 C126.17079842 -0.55544208 136.99222536 -1.79099669 142.83984375 1.1328125 C142.26564887 4.67711497 141.35960238 7.39094369 139.609375 10.51953125 C139.14345947 11.36177246 138.67754395 12.20401367 138.19750977 13.07177734 C137.68760498 13.97879395 137.1777002 14.88581055 136.65234375 15.8203125 C135.55256647 17.80553612 134.45364308 19.79123297 133.35546875 21.77734375 C132.77861328 22.81713379 132.20175781 23.85692383 131.60742188 24.92822266 C128.66356123 30.26539322 125.78463614 35.63721881 122.90234375 41.0078125 C116.77709613 52.40023414 110.62303889 63.77679517 104.45751953 75.14746094 C102.81107455 78.18590483 101.16694629 81.22559201 99.5234375 84.265625 C98.70166016 85.78482544 98.70166016 85.78482544 97.86328125 87.3347168 C96.77265092 89.35138145 95.68279489 91.36846506 94.59375 93.38598633 C92.00296966 98.17695528 89.39003757 102.95260457 86.71875 107.69921875 C79.72627268 119.94619141 79.72627268 119.94619141 74.83984375 133.1328125 C74.37578125 134.7415625 74.37578125 134.7415625 73.90234375 136.3828125 C73.81271026 140.32668606 74.99557933 142.64920192 76.83984375 146.1328125 C80.59299921 148.00939023 84.84468755 147.72337874 88.79296875 146.5546875 C95.12266771 143.72433431 99.89967592 138.883883 104.83984375 134.1328125 C105.55527344 133.46894531 106.27070312 132.80507813 107.0078125 132.12109375 C119.69848191 120.01954633 127.14241164 103.44566977 135.16137695 88.09814453 C145.38675502 68.58590123 145.38675502 68.58590123 148.83984375 65.1328125 C151.08642578 64.90576172 151.08642578 64.90576172 153.84765625 64.9375 C155.32685547 64.94716797 155.32685547 64.94716797 156.8359375 64.95703125 C158.38474609 64.98216797 158.38474609 64.98216797 159.96484375 65.0078125 C161.52525391 65.02134766 161.52525391 65.02134766 163.1171875 65.03515625 C165.69163467 65.05877503 168.26562587 65.09171101 170.83984375 65.1328125 C170.29956292 69.96876124 168.76681832 73.69978807 166.4453125 77.91015625 C166.10157089 78.5500499 165.75782928 79.18994354 165.40367126 79.84922791 C164.66716562 81.21797376 163.92680356 82.58465039 163.18292236 83.94940186 C162.01645311 86.09030081 160.86100242 88.23680974 159.70849609 90.38525391 C158.15837134 93.27327092 156.60485071 96.1594038 155.04736328 99.04345703 C151.99970607 104.68766346 148.96764476 110.33956633 145.96484375 116.0078125 C145.48426514 116.895896 145.00368652 117.78397949 144.50854492 118.69897461 C140.16536713 126.91586123 136.5500875 134.81023347 138.83984375 144.1328125 C140.40086845 146.17959414 141.28837676 147.01207712 143.8203125 147.56640625 C156.02727778 147.5880115 164.46595738 139.39104367 172.77734375 131.23046875 C174.56666366 129.2647976 176.20506084 127.22913973 177.83984375 125.1328125 C178.62359375 124.16988281 179.40734375 123.20695312 180.21484375 122.21484375 C188.71394971 111.43941706 194.82966647 99.41174124 201.17382812 87.29101562 C203.60478133 82.68274912 206.11739967 78.12199735 208.65234375 73.5703125 C209.06685791 72.82096436 209.48137207 72.07161621 209.90844727 71.29956055 C212.71346458 66.25919167 212.71346458 66.25919167 213.83984375 65.1328125 C215.47457257 65.04580908 217.1129843 65.02580187 218.75 65.03515625 C220.2340332 65.03999023 220.2340332 65.03999023 221.74804688 65.04492188 C222.78896484 65.05330078 223.82988281 65.06167969 224.90234375 65.0703125 C226.46952148 65.07708008 226.46952148 65.07708008 228.06835938 65.08398438 C230.65891035 65.09581337 233.24934934 65.11229561 235.83984375 65.1328125 C235.24628533 69.04344428 234.0545519 71.92559676 232.1171875 75.36328125 C231.57900391 76.33072266 231.04082031 77.29816406 230.48632812 78.29492188 C229.64038086 79.79249023 229.64038086 79.79249023 228.77734375 81.3203125 C227.65773635 83.31171408 226.54165912 85.3051059 225.4296875 87.30078125 C224.93331787 88.18016357 224.43694824 89.0595459 223.92553711 89.96557617 C222.6905443 92.02684522 222.6905443 92.02684522 222.83984375 94.1328125 C223.43667969 93.48957031 224.03351563 92.84632813 224.6484375 92.18359375 C238.70784887 77.53924402 256.0271339 62.55510537 277.27734375 61.8203125 C284.21614015 61.98391796 289.55195698 63.13091157 294.83984375 67.7578125 C297.77646592 72.71336241 298.3736151 76.79674158 297.46484375 82.4765625 C294.01653786 95.75254018 285.32497168 107.14687891 277.70239258 118.29150391 C268.98573397 130.26538611 268.98573397 130.26538611 264.83984375 144.1328125 C266.43479835 147.23273141 266.43479835 147.23273141 268.65234375 147.63671875 C279.018606 147.91438649 286.20465917 141.30975825 293.41015625 134.51953125 C294.21195313 133.73191406 295.01375 132.94429687 295.83984375 132.1328125 C296.57976563 131.41738281 297.3196875 130.70195312 298.08203125 129.96484375 C303.71339437 124.14309647 307.70973784 117.66687327 311.81958008 110.74633789 C315.38158133 104.77550125 319.25037232 99.36739036 323.83984375 94.1328125 C324.52304688 93.318125 325.20625 92.5034375 325.91015625 91.6640625 C339.37920216 76.02258983 355.94568741 64.18934038 376.796875 61.79296875 C381.86400168 61.60304646 385.58112405 62.16161271 389.83984375 65.1328125 C392.58677027 67.86481007 394.59763801 70.40619529 395.83984375 74.1328125 C396.48953125 73.0190625 396.48953125 73.0190625 397.15234375 71.8828125 C397.70921875 70.9753125 398.26609375 70.0678125 398.83984375 69.1328125 C399.45859375 68.0190625 399.45859375 68.0190625 400.08984375 66.8828125 C402.70775355 64.2649027 405.30178089 64.16973142 408.83984375 64.1328125 C412.86523908 64.26512638 416.87286695 64.41325046 420.83984375 65.1328125 C421.16984375 65.7928125 421.49984375 66.4528125 421.83984375 67.1328125 C421.04223633 69.12207031 421.04223633 69.12207031 419.734375 71.5859375 C419.01060669 72.962052 419.01060669 72.962052 418.2722168 74.3659668 C417.73765869 75.36152588 417.20310059 76.35708496 416.65234375 77.3828125 C416.10425049 78.41768799 415.55615723 79.45256348 414.99145508 80.51879883 C410.9022028 88.21576745 406.73973794 95.87320662 402.54956055 103.515625 C398.47552968 110.94701366 394.46104245 118.40932697 390.46484375 125.8828125 C389.20448778 128.2396158 387.9441011 130.59640266 386.68359375 132.953125 C386.3699437 133.53958298 386.05629364 134.12604095 385.73313904 134.73027039 C381.55372106 142.541383 377.34826453 150.33848659 373.14306641 158.13574219 C372.59183105 159.15829102 372.0405957 160.18083984 371.47265625 161.234375 C370.98684082 162.13494629 370.50102539 163.03551758 370.00048828 163.96337891 C369.26206928 165.34360424 368.5398844 166.73273119 367.83984375 168.1328125 C384.38957839 163.24928425 397.46522646 152.86836505 409.83984375 141.1328125 C411.18369141 139.86824219 411.18369141 139.86824219 412.5546875 138.578125 C422.19654461 129.24729554 429.96021065 118.95463227 436.97314453 107.5378418 C439.63975153 103.23285861 439.63975153 103.23285861 441.83984375 102.1328125 C443.7136398 102.06247481 445.58985477 102.0485103 447.46484375 102.0703125 C448.96917969 102.08384766 448.96917969 102.08384766 450.50390625 102.09765625 C451.27476562 102.10925781 452.045625 102.12085938 452.83984375 102.1328125 C452.27465974 105.87181692 451.28347237 108.41907613 449.21484375 111.57421875 C448.67778809 112.39921875 448.14073242 113.22421875 447.58740234 114.07421875 C447.01070801 114.93917969 446.43401367 115.80414063 445.83984375 116.6953125 C445.24896973 117.58992188 444.6580957 118.48453125 444.04931641 119.40625 C424.46339616 148.85171291 400.18798207 170.25858568 367.22216797 183.48266602 C360.73548734 186.08711441 356.10942794 188.22023582 352.02734375 194.1328125 C351.33640625 195.11378906 350.64546875 196.09476563 349.93359375 197.10546875 C348.8971875 198.60400391 348.8971875 198.60400391 347.83984375 200.1328125 C338.08124879 214.19078843 326.39774367 229.91693258 308.83984375 234.1328125 C299.81524793 235.23489448 292.34118229 234.5202709 284.83984375 229.1328125 C280.65958934 224.85060066 279.6717804 221.39170546 279.52734375 215.5078125 C279.64780539 207.17588233 281.78193178 201.7754098 287.77734375 195.9453125 C297.77097472 187.73159293 311.79748725 182.52316025 324.71484375 181.80859375 C334.35609772 181.11192455 334.35609772 181.11192455 342.00146484 175.70361328 C346.39859354 169.25613205 349.77560007 162.29637884 352.83984375 155.1328125 C349.09912371 156.59843565 345.58668992 158.2668381 342.02734375 160.1328125 C332.87685464 164.71924347 324.13805662 166.87812422 314.08984375 163.9453125 C308.54170162 161.86717564 305.7511441 158.89256491 303.02734375 153.6328125 C301.93796678 150.42201723 301.73211473 148.44406229 301.83984375 145.1328125 C300.89625 145.85726562 299.95265625 146.58171875 298.98046875 147.328125 C285.95416114 157.19292269 273.95196672 164.48124564 257.21484375 164.5078125 C256.395 164.53230469 255.57515625 164.55679688 254.73046875 164.58203125 C249.2555036 164.60843783 246.1907678 163.74752837 241.83984375 160.1328125 C238.10975821 156.30456681 237.52378183 153.12010394 237.33984375 147.9453125 C237.90299838 131.40733814 248.42286833 117.96792781 257.83984375 105.1328125 C259.65981804 102.63815372 261.47025585 100.13681477 263.27734375 97.6328125 C263.69016602 97.06973389 264.10298828 96.50665527 264.52832031 95.92651367 C269.3290037 89.66457428 269.3290037 89.66457428 270.52734375 82.2578125 C270.30046875 81.5565625 270.07359375 80.8553125 269.83984375 80.1328125 C263.86011249 78.56418581 260.15868539 80.27049309 254.83984375 83.1328125 C226.81149034 101.78325819 206.49184753 132.42666872 187.16015625 159.33203125 C185.83984375 161.1328125 185.83984375 161.1328125 184.83984375 162.1328125 C183.20511493 162.21981592 181.5667032 162.23982313 179.9296875 162.23046875 C178.94033203 162.22724609 177.95097656 162.22402344 176.93164062 162.22070312 C175.89072266 162.21232422 174.84980469 162.20394531 173.77734375 162.1953125 C172.73255859 162.19080078 171.68777344 162.18628906 170.61132812 162.18164062 C168.02077715 162.16981163 165.43033816 162.15332939 162.83984375 162.1328125 C163.16984375 159.8228125 163.49984375 157.5128125 163.83984375 155.1328125 C162.80085938 155.68710937 161.761875 156.24140625 160.69140625 156.8125 C145.9967942 164.50749262 145.9967942 164.50749262 137.83984375 165.1328125 C137.01097656 165.20113281 136.18210937 165.26945313 135.328125 165.33984375 C128.7704497 165.61098806 122.14481206 164.99900558 117.015625 160.55078125 C113.38280071 156.51333246 110.83984375 152.70352029 110.83984375 147.1328125 C109.94523437 147.79667969 109.050625 148.46054687 108.12890625 149.14453125 C95.10249474 158.70989759 82.67456609 165.86896837 65.83984375 165.1328125 C59.56216712 164.0137484 54.82868937 162.33039922 50.83984375 157.1328125 C48.22781715 152.84162594 47.33802525 149.1146275 46.83984375 144.1328125 C45.95296875 144.9371875 45.06609375 145.7415625 44.15234375 146.5703125 C31.60265606 157.26923817 17.93228862 166.48087735 0.83984375 165.1328125 C-5.20924631 164.07616055 -9.17829969 162.00922602 -12.94140625 157.1171875 C-14.90267196 153.92384462 -16.0328985 150.70246203 -17.16015625 147.1328125 C-17.76537109 147.7515625 -17.76537109 147.7515625 -18.3828125 148.3828125 C-29.20723056 158.67864964 -42.81096852 164.68774631 -57.74609375 165.2734375 C-64.55320015 164.99305325 -71.3777008 163.20511374 -76.16015625 158.1328125 C-79.10346498 153.50761307 -79.69901116 149.48209555 -80.16015625 144.1328125 C-81.28693787 144.96373526 -82.41141646 145.79778056 -83.53515625 146.6328125 C-84.63923828 147.45265625 -84.63923828 147.45265625 -85.765625 148.2890625 C-87.36303496 149.51904211 -88.92911642 150.79080219 -90.4609375 152.1015625 C-100.91589217 160.99939626 -112.33216393 166.22341308 -126.16015625 165.1328125 C-132.24900641 164.06921528 -136.26037575 161.97551239 -140.01171875 157.01171875 C-143.49508436 151.31274305 -143.66312864 144.63341047 -144.16015625 138.1328125 C-144.87558594 138.761875 -145.59101562 139.3909375 -146.328125 140.0390625 C-156.60314405 148.86521082 -167.45968621 156.16551755 -180.16015625 161.1328125 C-180.93746094 161.4525 -181.71476563 161.7721875 -182.515625 162.1015625 C-194.36810986 166.17173218 -212.70427023 166.53344448 -224.16015625 161.1328125 C-231.17143412 157.33503699 -235.21848902 151.84650843 -237.7734375 144.328125 C-240.88656728 126.65561049 -235.14891466 110.70770695 -225.2109375 96.30859375 C-223.28336031 93.81799198 -221.27455922 91.46648689 -219.16015625 89.1328125 C-218.4228125 88.30265625 -217.68546875 87.4725 -216.92578125 86.6171875 C-204.97368322 73.88390659 -187.5696243 63.40474862 -169.9296875 61.84765625 C-161.66497466 61.62480936 -154.33796119 62.55501796 -147.22265625 66.9453125 C-143.11399384 71.30298476 -141.95015478 74.96785072 -141.72265625 80.8828125 C-142.01223655 90.25363108 -145.2483921 97.21596101 -151.71484375 103.96875 C-168.84151756 119.12558274 -192.13208503 122.35091034 -214.16015625 123.1328125 C-213.90742111 130.12093926 -213.5990273 135.55576939 -209.16015625 141.1328125 C-200.1099465 147.09938223 -189.27951257 147.53140794 -178.859375 145.484375 C-166.70613689 141.71767604 -156.57173403 134.51412881 -147.16015625 126.1328125 C-146.350625 125.41867187 -145.54109375 124.70453125 -144.70703125 123.96875 C-138.60137211 118.23730868 -133.93929681 111.83615089 -129.11547852 105.02539062 C-115.51742518 85.89548778 -98.02195787 67.44597627 -74.00390625 62.5390625 C-66.43344437 61.45756795 -60.56825612 61.11870286 -53.9140625 65.2578125 C-51.22845958 68.12883566 -49.78024719 71.57926885 -48.16015625 75.1328125 C-41.78718042 63.48735805 -35.44617667 51.82545735 -29.16015625 40.1328125 C-26.8279984 35.79884543 -24.49462553 31.46553495 -22.16015625 27.1328125 C-21.58604004 26.06708008 -21.01192383 25.00134766 -20.42041016 23.90332031 C-18.77482931 20.85281484 -17.12452801 17.80491503 -15.47265625 14.7578125 C-14.97958984 13.84257812 -14.48652344 12.92734375 -13.97851562 11.984375 C-13.51896484 11.13875 -13.05941406 10.293125 -12.5859375 9.421875 C-12.18802002 8.68662598 -11.79010254 7.95137695 -11.38012695 7.19384766 C-8.2836115 1.96255219 -6.235506 0.00969214 0 0 Z M-201.16015625 96.1328125 C-207.01963213 104.18406344 -207.01963213 104.18406344 -211.16015625 113.1328125 C-195.58203575 113.56844227 -179.87582676 108.53289515 -167.59765625 98.8203125 C-162.75909615 94.19031103 -159.28122395 88.46217416 -159.03515625 81.6953125 C-160.51349648 78.32798198 -161.762073 77.4920458 -165.16015625 76.1328125 C-178.68442401 73.87876787 -193.20070154 86.45323987 -201.16015625 96.1328125 Z M-95.203125 95.83984375 C-104.91251208 107.21591205 -116.11362617 122.71341546 -116.47265625 138.1328125 C-116.51003906 139.1846875 -116.54742188 140.2365625 -116.5859375 141.3203125 C-116.42060545 144.21127319 -116.42060545 144.21127319 -114.3984375 146.0078125 C-110.51078882 147.96181393 -107.2726902 147.15608866 -103.16015625 146.1328125 C-84.84340206 139.95727835 -71.00991168 119.74531565 -62.57128906 103.24853516 C-58.90629063 95.77137389 -55.84768457 88.62126567 -57.16015625 80.1328125 C-58.87716234 76.8761877 -58.87716234 76.8761877 -62.16015625 76.1953125 C-74.52974619 75.07543193 -87.31444516 87.51936248 -95.203125 95.83984375 Z M37.83984375 90.1328125 C37.17082031 90.69871094 36.50179688 91.26460937 35.8125 91.84765625 C27.6914794 99.35721177 21.55417529 109.39678661 16.33984375 119.0703125 C16.0137915 119.67230469 15.68773926 120.27429688 15.35180664 120.89453125 C11.6389768 128.03390519 9.76808234 135.11548038 10.83984375 143.1328125 C12.05155216 146.01186345 12.05155216 146.01186345 14.83984375 147.1328125 C23.22751776 147.9186231 30.74581333 143.77184555 37.01171875 138.58984375 C51.12227502 126.33056914 67.79797117 106.33883273 70.2109375 87.1875 C70.40158029 83.12745045 70.40158029 83.12745045 69.83984375 79.1328125 C68.13924942 77.21673098 68.13924942 77.21673098 65.83984375 76.1328125 C54.40586699 76.1328125 46.12217543 83.08566211 37.83984375 90.1328125 Z M351.71484375 93.7578125 C340.43803746 105.12615131 327.97742628 122.78555478 327.58984375 139.2578125 C327.55237143 142.93288124 327.55237143 142.93288124 328.90234375 145.0703125 C332.65854953 147.13016728 335.97447207 147.57724669 340.16796875 146.578125 C347.12875853 144.10463681 352.38631249 140.02610941 357.83984375 135.1328125 C358.96712891 134.12927734 358.96712891 134.12927734 360.1171875 133.10546875 C369.2361113 124.49938425 375.95996383 114.18646058 381.83984375 103.1953125 C382.21367188 102.49792969 382.5875 101.80054688 382.97265625 101.08203125 C386.24358516 94.75823535 388.7769696 88.36206904 387.83984375 81.1328125 C385.73482504 78.11050548 385.73482504 78.11050548 382.83984375 76.1328125 C370.0199666 76.1328125 360.46065782 85.27966993 351.71484375 93.7578125 Z M323.828125 194.13671875 C323.07418457 194.3797876 322.32024414 194.62285645 321.54345703 194.87329102 C320.75438965 195.14455811 319.96532227 195.4158252 319.15234375 195.6953125 C318.34522949 195.96980225 317.53811523 196.24429199 316.70654297 196.52709961 C308.97419671 199.26410967 301.12360127 202.73359496 296.83984375 210.1328125 C297.01423882 213.18472628 297.6524289 213.94539765 299.83984375 216.1328125 C307.32159918 217.2016347 311.91270529 214.56872823 317.83984375 210.1328125 C323.30156309 205.42643732 327.70762799 200.0180895 331.83984375 194.1328125 C328.7433914 193.13667535 326.91262803 193.13992679 323.828125 194.13671875 Z " fill="#040707" transform="translate(949.16015625,270.8671875)"/>
<path d="M0 0 C3.43739487 3.53029744 4.54420068 6.10015733 5 11 C2.24231203 11.91922932 0.33743663 11.96572948 -2.625 11.8125 C-16.59371368 11.70921931 -29.15822658 23.33301972 -38.53564453 32.53955078 C-48.00355214 41.98220222 -56.03192804 52.28840971 -64 63 C-64.57153809 63.7626416 -65.14307617 64.5252832 -65.73193359 65.31103516 C-74.48443345 76.99162628 -82.82880584 88.90778915 -91 101 C-140.17835671 173.58917836 -140.17835671 173.58917836 -149 178 C-153.28301079 178.23400556 -157.56975996 178.22835997 -161.85839844 178.24023438 C-163.99192959 178.2499632 -166.12450656 178.28099756 -168.2578125 178.3125 C-169.60936927 178.31902791 -170.96093294 178.32427921 -172.3125 178.328125 C-173.54613281 178.3374707 -174.77976562 178.34681641 -176.05078125 178.35644531 C-177.02402344 178.23881836 -177.99726562 178.12119141 -179 178 C-179.66 177.01 -180.32 176.02 -181 175 C-180.33955777 172.13166595 -179.56196344 169.50391144 -178.609375 166.73046875 C-178.32181839 165.85842804 -178.03426178 164.98638733 -177.73799133 164.08792114 C-176.75461102 161.1167614 -175.75207805 158.1524011 -174.75 155.1875 C-174.04751033 153.07552479 -173.34629518 150.96312529 -172.64624023 148.8503418 C-170.82711333 143.37182661 -168.99465183 137.89786698 -167.15687275 132.42558956 C-165.33365297 126.99616294 -163.51468093 121.56532468 -161.69775391 116.13378906 C-161.41150461 115.27807532 -161.12525532 114.42236158 -160.8303318 113.54071712 C-159.35272119 109.12274389 -157.87595229 104.70449057 -156.400177 100.28590393 C-156.10655588 99.40679824 -155.81293476 98.52769255 -155.51041603 97.62194729 C-154.91690157 95.8449025 -154.32343512 94.06784167 -153.73001671 92.29076481 C-151.95704841 86.98333918 -150.17823936 81.67791473 -148.39474964 76.37401581 C-147.26795788 73.02073326 -146.14475927 69.66625417 -145.02229881 66.31151962 C-144.49431364 64.7362727 -143.96474386 63.1615559 -143.43349648 61.58740616 C-142.70028623 59.41421268 -141.97269014 57.23921424 -141.24633789 55.0637207 C-140.62922691 53.22690483 -140.62922691 53.22690483 -139.99964905 51.35298157 C-139.06929739 48.23243446 -138.45269882 45.22087135 -138 42 C-138.39566162 42.70157227 -138.79132324 43.40314453 -139.19897461 44.12597656 C-147.52507683 58.86163806 -156.0152015 73.47125731 -164.84912109 87.90844727 C-168.62215621 94.07610932 -172.35136116 100.26418648 -175.99755859 106.5078125 C-186.59814424 124.65945495 -197.58248544 142.63321926 -210.58105469 159.18261719 C-212.07723055 161.09891677 -213.54380825 163.03559759 -215.0078125 164.9765625 C-215.98368873 166.25573218 -216.96022559 167.5343982 -217.9375 168.8125 C-218.37425049 169.39410889 -218.81100098 169.97571777 -219.26098633 170.57495117 C-221.87376404 173.94229626 -224.18777187 176.10897843 -228 178 C-230.83081055 178.35644531 -230.83081055 178.35644531 -233.88671875 178.328125 C-234.98951172 178.32296875 -236.09230469 178.3178125 -237.22851562 178.3125 C-238.36998047 178.291875 -239.51144531 178.27125 -240.6875 178.25 C-241.84056641 178.24484375 -242.99363281 178.2396875 -244.18164062 178.234375 C-252.69095562 178.15452219 -252.69095562 178.15452219 -255 177 C-254.37381875 170.93930531 -252.68258751 165.51797021 -250.72802734 159.76171875 C-250.3910936 158.75354599 -250.05415985 157.74537323 -249.70701599 156.70664978 C-248.58882238 153.36506217 -247.46226098 150.02635517 -246.3359375 146.6875 C-245.54313144 144.3216597 -244.75095806 141.9556073 -243.9593811 139.58935547 C-241.86261635 133.32570341 -239.75924518 127.06428866 -237.65386963 120.80352783 C-233.93574831 109.74669388 -230.22712649 98.6866758 -226.5234375 87.625 C-226.12178123 86.4260611 -225.72012497 85.22712219 -225.3062973 83.99185181 C-217.29809087 60.07029141 -209.58144624 36.05986947 -202 12 C-202.77596527 12.16018112 -203.55193054 12.32036224 -204.35140991 12.48539734 C-206.8757321 12.97585561 -209.28772365 13.22780836 -211.8515625 13.39453125 C-234.86146559 15.03795243 -262.12076472 17.93737151 -280 34 C-281.00740234 34.88171875 -281.00740234 34.88171875 -282.03515625 35.78125 C-290.60587942 43.78787038 -295.97848998 54.27909871 -296.47485352 66.07495117 C-296.55313391 72.65126434 -296.37095567 78.74160788 -292 84 C-290.08400036 85.89263379 -288.18948804 87.40764506 -286 89 C-286.495 90.485 -286.495 90.485 -287 92 C-292.90621368 94.33501471 -300.95762369 93.95125513 -306.8984375 92.09375 C-313.01343582 89.2290661 -316.93360975 85.94158425 -320.09765625 79.90625 C-323.30255303 69.58398505 -321.94561741 56.51331009 -317.55859375 46.83203125 C-315.04602016 42.26657798 -312.21346173 38.09735098 -309 34 C-308.236875 32.96875 -307.47375 31.9375 -306.6875 30.875 C-283.74956219 6.33674095 -246.78834315 -1.28359141 -214.60693359 -2.88427734 C-201.07989001 -3.31827076 -187.53111867 -3.14166429 -174 -3 C-172.4680166 0.93911685 -173.58964972 3.57369253 -174.9296875 7.46826172 C-175.15079193 8.12133427 -175.37189636 8.77440681 -175.59970093 9.44726944 C-176.0882256 10.88598024 -176.5816398 12.32303747 -177.07922363 13.75864029 C-177.89508216 16.11263041 -178.69857112 18.47053279 -179.49902344 20.82980347 C-180.37623075 23.41437733 -181.25442196 25.99858598 -182.13635254 28.58155251 C-185.54460124 38.56507428 -188.86035419 48.57899845 -192.17941284 58.59244537 C-193.97911168 64.0186161 -195.78469926 69.44282648 -197.58984375 74.8671875 C-199.81441348 81.55280499 -202.03813899 88.23869849 -204.25830078 94.92578125 C-206.09147246 100.4470679 -207.92759859 105.96736402 -209.76574707 111.4869957 C-210.45570233 113.56052497 -211.14461075 115.63440291 -211.83239746 117.7086525 C-212.78779244 120.58942894 -213.74698043 123.46891691 -214.70703125 126.34814453 C-214.98237198 127.18135727 -215.25771271 128.01457001 -215.54139709 128.87303162 C-217.48134359 134.67280686 -219.67631795 140.34352336 -222 146 C-221.34 146 -220.68 146 -220 146 C-219.76152344 145.31550781 -219.52304687 144.63101563 -219.27734375 143.92578125 C-217.74073567 140.40614989 -215.69781703 137.36001622 -213.5625 134.1875 C-208.07320412 125.86059684 -202.95257512 117.3311274 -197.875 108.75 C-197.46958984 108.06501434 -197.06417969 107.38002869 -196.64648438 106.67428589 C-191.11759329 97.3253121 -185.62377319 87.95575038 -180.13577271 78.58273315 C-177.712554 74.44481626 -175.28684938 70.30835797 -172.86035156 66.17236328 C-171.69161654 64.17937865 -170.52411341 62.18567056 -169.35839844 60.19091797 C-163.43128234 50.06463592 -157.23157634 40.15694196 -150.75 30.375 C-150.10023193 29.39104248 -149.45046387 28.40708496 -148.78100586 27.39331055 C-139.43408253 13.43408253 -139.43408253 13.43408253 -134 8 C-131.85441173 7.91224395 -129.70595579 7.89304781 -127.55859375 7.90234375 C-126.25341797 7.90556641 -124.94824219 7.90878906 -123.60351562 7.91210938 C-122.2148431 7.92046599 -120.82617123 7.92893095 -119.4375 7.9375 C-118.04492344 7.94251334 -116.65234519 7.94707653 -115.25976562 7.95117188 C-111.8398013 7.96300566 -108.41992156 7.9794912 -105 8 C-105.64031403 14.60740864 -107.65705065 20.61635012 -109.7265625 26.90234375 C-110.10640289 28.0724852 -110.48624329 29.24262665 -110.87759399 30.44822693 C-111.69583751 32.96757963 -112.51598177 35.48621414 -113.33947754 38.00384521 C-115.29702681 43.98971098 -117.23752637 49.98110835 -119.17797852 55.97253418 C-119.61776519 57.33032454 -120.05774831 58.68805129 -120.4979248 60.04571533 C-125.45939515 75.35159049 -130.25972781 90.70650701 -135.01416016 106.07788086 C-135.57689845 107.89314392 -136.13988108 109.70833126 -136.703125 111.5234375 C-137.10420975 112.8195269 -137.10420975 112.8195269 -137.51339722 114.14179993 C-138.94221736 118.7266118 -140.42439251 123.28770262 -141.97460938 127.83300781 C-142.29983582 128.78881744 -142.62506226 129.74462708 -142.96014404 130.72940063 C-143.5846118 132.55376037 -144.21578442 134.37584387 -144.85479736 136.19515991 C-146.8373584 141.94843399 -146.8373584 141.94843399 -147 148 C-146.03514373 146.55271559 -145.07028865 145.1054304 -144.10543823 143.65814209 C-143.23300006 142.34949519 -142.36054253 141.04086119 -141.48806763 139.73223877 C-139.02903391 136.04387617 -136.57035861 132.35527542 -134.11230469 128.66625977 C-129.37624632 121.55918516 -124.63732288 114.4541217 -119.8828125 107.359375 C-118.33788932 105.0525194 -116.79363064 102.7452207 -115.25 100.4375 C-114.87723938 99.88030273 -114.50447876 99.32310547 -114.12042236 98.74902344 C-109.80531731 92.29232322 -105.5678942 85.8027331 -101.5 79.1875 C-97.42525329 72.56774008 -93.04345506 66.23272673 -88.44384766 59.96777344 C-86.81391534 57.74639122 -85.19435933 55.51759519 -83.57421875 53.2890625 C-45.74534985 1.41560611 -45.74534985 1.41560611 -18.4375 -4.8125 C-11.17403551 -5.20868897 -5.78323538 -4.84177846 0 0 Z " fill="#040707" transform="translate(801,262)"/>
<path d="M0 0 C3.63 0 7.26 0 11 0 C13.1305297 7.72565911 14.34114437 15.60020622 15.625 23.5 C15.85646744 24.90890404 16.08823577 26.31775869 16.3203125 27.7265625 C16.88367993 31.15047886 17.44296762 34.57504659 18 38 C19.51900677 32.80216095 20.72646421 27.70650375 21.625 22.375 C21.75688721 21.59463379 21.88877441 20.81426758 22.0246582 20.01025391 C23.09605341 13.24391185 23.23937533 6.8620927 23 0 C26.96 0 30.92 0 35 0 C35.26478149 1.61225464 35.26478149 1.61225464 35.53491211 3.25708008 C36.19032001 7.24381776 36.84894513 11.23001835 37.50854492 15.21606445 C37.79360366 16.94150539 38.07778907 18.66709085 38.36108398 20.39282227 C38.76837459 22.87294386 39.17880045 25.35252921 39.58984375 27.83203125 C39.71592514 28.60400345 39.84200653 29.37597565 39.97190857 30.17134094 C40.47851256 33.21192112 41.02339965 36.07019894 42 39 C42.176521 37.92516357 42.35304199 36.85032715 42.53491211 35.74291992 C43.19032001 31.75618224 43.84894513 27.76998165 44.50854492 23.78393555 C44.79360366 22.05849461 45.07778907 20.33290915 45.36108398 18.60717773 C45.76837459 16.12705614 46.17880045 13.64747079 46.58984375 11.16796875 C46.77896584 10.01001045 46.77896584 10.01001045 46.97190857 8.82865906 C47.47851256 5.78807888 48.02339965 2.92980106 49 0 C50.98 0 52.96 0 55 0 C54.41582057 7.55253155 53.45664976 14.96740928 52.1875 22.43359375 C52.01371826 23.47395279 51.83993652 24.51431183 51.66088867 25.5861969 C51.29635022 27.76375963 50.92987321 29.94099866 50.56152344 32.11791992 C49.99750808 35.4522316 49.43966937 38.78753293 48.8828125 42.12304688 C48.52639873 44.24745577 48.16964023 46.37180686 47.8125 48.49609375 C47.64580811 49.49088242 47.47911621 50.48567108 47.30737305 51.51060486 C47.15051025 52.43579422 46.99364746 53.36098358 46.83203125 54.31420898 C46.69514893 55.12486313 46.5582666 55.93551727 46.41723633 56.77073669 C46.02547783 58.86387383 45.51647549 60.93409805 45 63 C41.04 63 37.08 63 33 63 C32.85377197 62.12674072 32.70754395 61.25348145 32.55688477 60.35375977 C32.01402996 57.12354756 31.46759866 53.89398353 30.91870117 50.66479492 C30.68157844 49.26529951 30.4458969 47.86555914 30.21166992 46.46557617 C29.87534365 44.45686216 29.53389604 42.44907732 29.19140625 40.44140625 C28.88505249 38.62684937 28.88505249 38.62684937 28.57250977 36.77563477 C28.28638332 34.1031547 28.28638332 34.1031547 27 33 C25.35 42.9 23.7 52.8 22 63 C18.04 63 14.08 63 10 63 C8.89644341 56.81118716 7.79377651 50.62221668 6.69189453 44.43310547 C6.31778355 42.33247714 5.94343949 40.2318903 5.56884766 38.13134766 C4.51944944 32.24632246 3.47450104 26.36054719 2.43713379 20.47338867 C2.06037889 18.34163562 1.67861592 16.21076878 1.29589844 14.08007812 C1.11317383 13.03787109 0.93044922 11.99566406 0.7421875 10.921875 C0.51958252 9.67035645 0.51958252 9.67035645 0.29248047 8.39355469 C-0.05138254 5.57950381 -0.04879402 2.83210749 0 0 Z " fill="#040707" transform="translate(601,472)"/>
<path d="M0 0 C4.08115764 2.88447922 7.28191939 6.68130127 8.93359375 11.44140625 C11.22896151 24.97199515 8.28731514 36.28309168 0.4296875 47.50390625 C-6.06701942 55.84818967 -13.22824999 62.64624177 -22.6953125 67.62890625 C-26.44907402 66.37765241 -26.93604539 65.06366585 -28.6953125 61.62890625 C-28.6953125 60.96890625 -28.6953125 60.30890625 -28.6953125 59.62890625 C-27.66798997 58.75257349 -26.59663948 57.92753414 -25.5078125 57.12890625 C-21.0636612 53.47061098 -18.69314402 48.97793902 -16.6953125 43.62890625 C-16.6953125 42.63890625 -16.6953125 41.64890625 -16.6953125 40.62890625 C-17.8709375 40.29890625 -19.0465625 39.96890625 -20.2578125 39.62890625 C-26.17799295 37.42066843 -30.10434584 32.86422772 -32.859375 27.26171875 C-34.72851154 21.37481209 -34.96482732 14.6626089 -32.5625 8.921875 C-29.66147775 4.34251265 -26.53230942 1.20177695 -21.6953125 -1.37109375 C-20.9321875 -1.78359375 -20.1690625 -2.19609375 -19.3828125 -2.62109375 C-12.19219678 -4.62777721 -6.51758824 -3.56335432 0 0 Z " fill="#FEFDFD" transform="translate(423.6953125,162.37109375)"/>
<path d="M0 0 C5.65359872 5.76781283 7.14186029 10.52483878 7.3125 18.5 C7.16881506 32.36559648 1.23944002 43.7140707 -8.1875 53.6875 C-13.2112333 58.46912567 -18.81746631 62.8251854 -25 66 C-28 65 -28 65 -29.25 63.1875 C-30.15708956 60.5418221 -29.94148154 59.60605974 -29 57 C-27.4765625 55.140625 -27.4765625 55.140625 -25.625 53.25 C-21.91633369 49.18341312 -19 44.72942922 -19 39 C-20.175625 38.67 -21.35125 38.34 -22.5625 38 C-28.49879593 35.78575107 -32.44152597 31.21014584 -35.17578125 25.578125 C-36.94656522 20.03917988 -36.92982528 13.55669578 -34.75 8.125 C-31.01840362 1.46143504 -27.21116556 -1.98277462 -20.0625 -4.75 C-12.07537639 -5.7181362 -6.7011622 -4.66508287 0 0 Z " fill="#FEFDFD" transform="translate(476,164)"/>
<path d="M0 0 C3.96 0 7.92 0 12 0 C16.62 13.86 21.24 27.72 26 42 C27.66378603 39.50432095 28.50734029 37.84541028 29.42041016 35.0793457 C29.68052887 34.29876297 29.94064758 33.51818024 30.20864868 32.71394348 C30.48268524 31.87634995 30.7567218 31.03875641 31.0390625 30.17578125 C31.32478119 29.31438034 31.61049988 28.45297943 31.90487671 27.56547546 C32.81581978 24.81586351 33.7204793 22.06423056 34.625 19.3125 C35.24177458 17.44712904 35.85895717 15.58189294 36.4765625 13.71679688 C37.98911267 9.14608218 39.49603099 4.5735451 41 0 C43.97 0 46.94 0 50 0 C50 20.79 50 41.58 50 63 C46.37 63 42.74 63 39 63 C38.67 52.77 38.34 42.54 38 32 C37.28972656 34.15402344 36.57945312 36.30804688 35.84765625 38.52734375 C35.15998138 40.6059524 34.47127706 42.68421724 33.7824707 44.76245117 C33.30320101 46.21033645 32.82500743 47.65857838 32.34790039 49.10717773 C31.66312716 51.18567425 30.97453228 53.26287003 30.28515625 55.33984375 C29.87144775 56.59144287 29.45773926 57.84304199 29.03149414 59.13256836 C28 62 28 62 27 63 C25.00041636 63.04080783 22.99954746 63.04254356 21 63 C18.12279967 56.04519052 15.59070882 49.02665638 13.25 41.875 C12.1775 38.61625 11.105 35.3575 10 32 C9.67 42.23 9.34 52.46 9 63 C7.02 63 5.04 63 3 63 C2.99191315 62.3287207 2.98382629 61.65744141 2.97549438 60.96582031 C2.88920667 53.95733206 2.78969302 46.94911879 2.68261719 39.94091797 C2.64441582 37.32800934 2.60954776 34.71504972 2.578125 32.10205078 C2.53228267 28.3386822 2.47431897 24.57566207 2.4140625 20.8125 C2.39673569 19.06984863 2.39673569 19.06984863 2.37905884 17.29199219 C2.26901018 11.19664636 1.77815502 5.83983543 0 0 Z " fill="#040707" transform="translate(937,472)"/>
<path d="M0 0 C3.96 0 7.92 0 12 0 C12 7.59 12 15.18 12 23 C14.97 23 17.94 23 21 23 C21 15.41 21 7.82 21 0 C24.63 0 28.26 0 32 0 C32 20.79 32 41.58 32 63 C28.37 63 24.74 63 21 63 C21 51.78 21 40.56 21 29 C18.03 29 15.06 29 12 29 C12 40.22 12 51.44 12 63 C8.04 63 4.08 63 0 63 C0 42.21 0 21.42 0 0 Z " fill="#040707" transform="translate(1129,472)"/>
<path d="M0 0 C6.98625547 6.62798596 9.47893935 13.53486125 9.8359375 23.15234375 C9.84379024 25.18489568 9.83581664 27.21756665 9.8125 29.25 C9.82410156 30.25740234 9.83570313 31.26480469 9.84765625 32.30273438 C9.81105538 41.78845908 8.63220463 50.70967434 2.1328125 57.97265625 C-2.61105738 61.72184374 -7.72969252 61.80531393 -13.55078125 61.68359375 C-18.17638659 61.11364238 -21.25511732 59.57993845 -24.5625 56.3125 C-32.0066028 46.66191163 -31.36829383 31.58195917 -30.25 20.10546875 C-29.19094495 12.5880691 -27.61261721 6.21383101 -22 0.875 C-15.69840259 -3.16448552 -6.64435895 -3.14732793 0 0 Z M-11.5625 4.3125 C-18.60493923 11.35493923 -18.8678726 20.90496776 -18.9375 30.3125 C-18.98242202 42.78566585 -18.98242202 42.78566585 -13.58203125 53.59375 C-11.74270525 55.53529078 -11.74270525 55.53529078 -9.5 55.3125 C-6.97214028 54.00779821 -6.08686486 52.72340337 -4.5625 50.3125 C-0.45291366 37.03667583 0.42713977 21.55491446 -5.4375 8.625 C-7.14210763 5.20368597 -7.14210763 5.20368597 -9.6953125 4.60546875 C-10.31148437 4.50878906 -10.92765625 4.41210938 -11.5625 4.3125 Z " fill="#040707" transform="translate(714.5625,473.6875)"/>
<path d="M0 0 C3.54150893 -0.08761663 7.08273633 -0.14059739 10.625 -0.1875 C11.62402344 -0.21263672 12.62304688 -0.23777344 13.65234375 -0.26367188 C19.18167989 -0.31859906 23.27785585 -0.23652577 28 3 C32.98716234 9.20025588 33.69918236 15.27153782 33 23 C32.3318089 26.15916823 31.59723844 29.18099335 30 32 C28.68835337 32.7083822 27.35572568 33.38013703 26 34 C26.21205078 34.80743652 26.42410156 35.61487305 26.64257812 36.44677734 C27.42724059 39.43927304 28.20972275 42.43232778 28.99072266 45.42578125 C29.49603307 47.35981689 30.00386608 49.29319287 30.51171875 51.2265625 C30.82753906 52.43828125 31.14335938 53.65 31.46875 54.8984375 C31.76201172 56.01911621 32.05527344 57.13979492 32.35742188 58.29443359 C33 61 33 61 33 63 C29.04 63 25.08 63 21 63 C19.02 55.08 17.04 47.16 15 39 C14.67 46.92 14.34 54.84 14 63 C10.37 63 6.74 63 3 63 C2.98018066 61.34025146 2.96036133 59.68050293 2.93994141 57.97045898 C2.86374391 51.7997344 2.7750478 45.62924126 2.68261719 39.45874023 C2.64332411 36.79045663 2.60952379 34.1222642 2.578125 31.45385742 C2.53234788 27.61358618 2.47437301 23.7736609 2.4140625 19.93359375 C2.39673569 18.15038979 2.39673569 18.15038979 2.37905884 16.3311615 C2.27608466 10.52350674 1.98303605 5.47944173 0 0 Z M14 6 C14 14.25 14 22.5 14 31 C18.25958086 29.95299965 18.25958086 29.95299965 21 27 C22.8310796 21.5067612 23.00802759 15.24515237 20.625 9.9375 C18.99508466 7.93682883 18.99508466 7.93682883 17 6 C16.01 6 15.02 6 14 6 Z " fill="#040707" transform="translate(754,472)"/>
<path d="M0 0 C3.00099588 -0.10890711 5.99796378 -0.18773555 9 -0.25 C9.83917969 -0.28351563 10.67835938 -0.31703125 11.54296875 -0.3515625 C17.56688508 -0.44495655 21.99846919 0.54346054 27 4 C28.8046875 5.859375 28.8046875 5.859375 29.875 7.75 C30.24367188 8.36359375 30.61234375 8.9771875 30.9921875 9.609375 C36.29672711 22.19223639 36.07423364 39.6628037 31.41015625 52.41796875 C28.58705789 57.58713223 24.57847943 61.14050686 19 63 C16.26134713 63.07051114 13.54972412 63.09357765 10.8125 63.0625 C10.06291016 63.05798828 9.31332031 63.05347656 8.54101562 63.04882812 C6.69397617 63.03706354 4.84697787 63.01912865 3 63 C2.99191315 62.3287207 2.98382629 61.65744141 2.97549438 60.96582031 C2.88920667 53.95733206 2.78969302 46.94911879 2.68261719 39.94091797 C2.64441582 37.32800934 2.60954776 34.71504972 2.578125 32.10205078 C2.53228267 28.3386822 2.47431897 24.57566207 2.4140625 20.8125 C2.39673569 19.06984863 2.39673569 19.06984863 2.37905884 17.29199219 C2.26901018 11.19664636 1.77815502 5.83983543 0 0 Z M14 6 C14 22.83 14 39.66 14 57 C17.97042407 56.48050105 17.97042407 56.48050105 19.23046875 54.1796875 C19.54628906 53.41914062 19.86210938 52.65859375 20.1875 51.875 C20.51105469 51.12992188 20.83460938 50.38484375 21.16796875 49.6171875 C24.71212164 38.46891315 25.01070329 20.73821312 20.08203125 10 C19.01415895 8.11570047 19.01415895 8.11570047 17 6 C16.01 6 15.02 6 14 6 Z " fill="#040707" transform="translate(818,472)"/>
<path d="M0 0 C4.31955599 3.91773683 5.81482332 8.07923426 6.125 13.8125 C5.87150865 20.88611582 2.58132034 27.39538207 -2.3125 32.4375 C-7.59012629 36.1318384 -11.88670386 36.88843306 -18.3125 36.4375 C-22.00023373 34.76125739 -24.17033496 32.86496406 -26.3125 29.4375 C-28.35509807 23.30970578 -28.13644979 16.63191848 -25.75 10.625 C-23.03635765 5.25545237 -19.04603554 1.97949441 -13.875 -0.9375 C-8.59916911 -2.22428802 -4.85907162 -2.29201492 0 0 Z " fill="#040707" transform="translate(1139.3125,270.5625)"/>
<path d="M0 0 C3.02572908 2.01381306 5.52052381 4.35162216 8 7 C6.25 10.890625 6.25 10.890625 4 11.875 C3.01 11.936875 3.01 11.936875 2 12 C1.34 11.34 0.68 10.68 0 10 C-2.60280568 10.32041397 -2.60280568 10.32041397 -5 11 C-6.26107159 20.36796042 -0.8229887 26.95490225 4.3125 34.375 C7.8846628 39.93169768 8.88861847 45.50540573 8 52 C6.67824369 56.11530614 4.98779728 59.12195798 1.75 62 C-2.98360207 63.72130984 -7.10406375 63.81869974 -11.75 61.8125 C-14.265046 59.78649072 -16.10009368 57.60357533 -18 55 C-16.68 53.68 -15.36 52.36 -14 51 C-13.2575 51.350625 -12.515 51.70125 -11.75 52.0625 C-8.8677274 53.04509293 -7.78823655 53.0326802 -5 52 C-3.88924281 43.74866091 -7.68693416 38.79553437 -12 32 C-12.97315371 30.34194318 -13.93336841 28.67615945 -14.875 27 C-15.45894531 25.9790625 -15.45894531 25.9790625 -16.0546875 24.9375 C-18.51562669 19.89359158 -19.0341321 14.15297886 -17.28125 8.80859375 C-15.82497318 5.62005217 -14.41082175 3.37560846 -11.8125 1 C-7.73091582 -0.45122993 -4.25813121 -1.02928337 0 0 Z " fill="#040707" transform="translate(899,472)"/>
<path d="M0 0 C10.56 0 21.12 0 32 0 C32 1.98 32 3.96 32 6 C28.7 6 25.4 6 22 6 C22 24.81 22 43.62 22 63 C18.37 63 14.74 63 11 63 C11 44.19 11 25.38 11 6 C7.37 6 3.74 6 0 6 C0 4.02 0 2.04 0 0 Z " fill="#040707" transform="translate(1065,472)"/>
<path d="M0 0 C3.63 0 7.26 0 11 0 C11 20.79 11 41.58 11 63 C7.37 63 3.74 63 0 63 C0 42.21 0 21.42 0 0 Z " fill="#040707" transform="translate(1022,472)"/>
</svg>
