<?xml version="1.0" encoding="utf-8"?>
<!-- Generator: Adobe Illustrator 28.1.0, SVG Export Plug-In . SVG Version: 6.00 Build 0)  -->
<svg version="1.1" id="Layer_1" xmlns="http://www.w3.org/2000/svg" xmlns:xlink="http://www.w3.org/1999/xlink" x="0px" y="0px"
	 viewBox="0 0 432 432" style="enable-background:new 0 0 432 432;" xml:space="preserve">
<style type="text/css">
	.st0{fill:#167478;}
	.st1{fill:#6BB3A4;}
	.st2{fill:#C2F6DF;}
	.st3{fill:#FFFFFF;}
	.st4{fill:#011D28;}
	.st5{fill:#00A7EA;}
	.st6{fill:#56AD9C;}
	.st7{fill:#167277;}
</style>
<rect class="st4" width="432" height="432"/>
<g>
	<g>
		<path class="st0" d="M153.4,192.9C153.4,192.9,153.4,192.9,153.4,192.9C153.4,192.9,153.4,192.9,153.4,192.9
			C153.4,192.9,153.4,192.9,153.4,192.9z"/>
		<path class="st0" d="M154.3,196.1c0,0.1,0,0.1,0.1,0.2C154.4,196.3,154.4,196.2,154.3,196.1z"/>
		<path class="st0" d="M294.2,176.4c0,0.5,0,1-0.1,1.4C294.1,177.4,294.1,176.9,294.2,176.4z"/>
		<path class="st0" d="M284.3,173.2C284.3,173.2,284.3,173.2,284.3,173.2c0-0.2,0-0.3,0-0.5C284.3,172.9,284.3,173,284.3,173.2z"/>
		<path class="st0" d="M141,177.7c0-0.4,0-0.8-0.1-1.1C141,176.9,141,177.3,141,177.7z"/>
		<path class="st0" d="M161.1,211.7c0.1,0.1,0.2,0.3,0.3,0.4C161.3,212,161.2,211.8,161.1,211.7z"/>
		<path class="st0" d="M159.5,208.7c0.1,0.1,0.1,0.3,0.2,0.4C159.6,209,159.6,208.9,159.5,208.7z"/>
		<path class="st0" d="M158,205.7c0.1,0.1,0.1,0.2,0.2,0.3C158.1,205.9,158.1,205.8,158,205.7z"/>
		<path class="st0" d="M156.7,202.6c0,0.1,0.1,0.2,0.1,0.3C156.7,202.8,156.7,202.7,156.7,202.6z"/>
		<path class="st0" d="M155.4,199.4c0,0.1,0.1,0.2,0.1,0.2C155.5,199.6,155.5,199.5,155.4,199.4z"/>
		<path class="st0" d="M152.2,192.8c-2.9-0.3-6.8-0.9-9.6-2.3c5.1,25.4,20.9,46.5,41.9,57.4l-3.7-9.2
			C166.5,228.3,155.9,212,152.2,192.8z"/>
		<path class="st0" d="M276.9,206c0.1-0.1,0.1-0.2,0.2-0.3C277,205.8,277,205.9,276.9,206z"/>
		<path class="st0" d="M281.7,192.8L281.7,192.8c0,0,0,0.1,0,0.1C281.7,192.9,281.7,192.9,281.7,192.8z"/>
		<path class="st0" d="M141.3,181.6c0-0.4-0.1-0.8-0.1-1.1C141.2,180.9,141.3,181.3,141.3,181.6z"/>
		<path class="st0" d="M280.7,196.3c0-0.1,0-0.1,0.1-0.2C280.7,196.2,280.7,196.3,280.7,196.3z"/>
		<path class="st0" d="M279.6,199.6c0-0.1,0.1-0.2,0.1-0.2C279.6,199.5,279.6,199.6,279.6,199.6z"/>
		<path class="st0" d="M261.9,227.3c-0.2,0.2-0.5,0.4-0.7,0.7C261.4,227.7,261.7,227.5,261.9,227.3z"/>
		<path class="st0" d="M293.6,183.3c0.1-1.1,0.2-2.3,0.3-3.4C293.8,181.1,293.7,182.2,293.6,183.3
			C293.6,183.3,293.6,183.3,293.6,183.3z"/>
		<path class="st0" d="M162.9,214.5c0.1,0.2,0.2,0.3,0.3,0.5C163.1,214.8,163,214.7,162.9,214.5z"/>
		<path class="st0" d="M256.9,231.7L256.9,231.7c0,0,0.1-0.1,0.1-0.1C257,231.6,256.9,231.7,256.9,231.7z"/>
		<path class="st0" d="M275.4,209.1c0.1-0.1,0.1-0.3,0.2-0.4C275.5,208.9,275.5,209,275.4,209.1z"/>
		<path class="st0" d="M258.7,230.2c0.3-0.2,0.5-0.4,0.8-0.7C259.2,229.7,259,229.9,258.7,230.2z"/>
		<path class="st0" d="M263.6,225.6c0.2-0.2,0.4-0.4,0.6-0.6C264,225.2,263.8,225.4,263.6,225.6z"/>
		<path class="st0" d="M270,217.8c0.1-0.2,0.3-0.3,0.4-0.5C270.3,217.5,270.2,217.6,270,217.8z"/>
		<path class="st0" d="M265.8,223.1c0.2-0.2,0.4-0.4,0.5-0.6C266.2,222.7,266,222.9,265.8,223.1z"/>
		<path class="st0" d="M273.7,212.1c0.1-0.1,0.2-0.3,0.3-0.4C273.9,211.8,273.8,212,273.7,212.1z"/>
		<path class="st0" d="M268,220.5c0.1-0.2,0.3-0.4,0.4-0.6C268.3,220.1,268.1,220.3,268,220.5z"/>
		<path class="st0" d="M271.9,215c0.1-0.2,0.2-0.3,0.3-0.5C272.2,214.7,272,214.8,271.9,215z"/>
		<path class="st0" d="M170.9,224.9c0.2,0.2,0.4,0.4,0.6,0.6C171.3,225.4,171.1,225.2,170.9,224.9z"/>
		<path class="st0" d="M166.7,219.9c0.1,0.2,0.3,0.4,0.4,0.6C167,220.3,166.8,220.1,166.7,219.9z"/>
		<path class="st0" d="M173.9,227.9c-0.2-0.2-0.5-0.4-0.7-0.7C173.5,227.5,173.7,227.7,173.9,227.9z"/>
		<path class="st0" d="M168.8,222.5c0.2,0.2,0.4,0.4,0.5,0.6C169.1,222.9,168.9,222.7,168.8,222.5z"/>
		<path class="st0" d="M175.6,229.5c0.3,0.2,0.5,0.5,0.8,0.7C176.1,229.9,175.9,229.7,175.6,229.5z"/>
		<path class="st0" d="M164.7,217.3c0.1,0.2,0.3,0.3,0.4,0.5C165,217.6,164.8,217.5,164.7,217.3z"/>
		<path class="st0" d="M254.7,238.4l-2.9,8.9c20.6-11.2,36-32.2,40.9-57.4c-2.4,1.6-6.5,2.4-9.7,2.8
			C279.3,211.7,268.9,228,254.7,238.4z"/>
		<path class="st0" d="M278.3,202.9c0-0.1,0.1-0.2,0.1-0.3C278.4,202.7,278.4,202.8,278.3,202.9z"/>
		<path class="st1" d="M280.8,196.1c0,0.1,0,0.1-0.1,0.2c-0.3,1-0.7,2.1-1,3.1c0,0.1-0.1,0.2-0.1,0.2c-0.4,1-0.7,2-1.1,3
			c0,0.1-0.1,0.2-0.1,0.3c-0.4,1-0.8,1.9-1.2,2.8c-0.1,0.1-0.1,0.2-0.2,0.3c-0.4,0.9-0.9,1.8-1.3,2.7c-0.1,0.1-0.1,0.3-0.2,0.4
			c-0.5,0.9-0.9,1.7-1.4,2.6c-0.1,0.1-0.2,0.3-0.3,0.4c-0.5,0.8-1,1.6-1.5,2.4c-0.1,0.2-0.2,0.3-0.3,0.5c-0.5,0.8-1,1.5-1.5,2.3
			c-0.1,0.2-0.3,0.3-0.4,0.5c-0.5,0.7-1,1.4-1.6,2.1c-0.1,0.2-0.3,0.4-0.4,0.6c-0.5,0.7-1.1,1.3-1.6,2c-0.2,0.2-0.4,0.4-0.5,0.6
			c-0.5,0.6-1.1,1.2-1.7,1.8c-0.2,0.2-0.4,0.4-0.6,0.6c-0.6,0.6-1.1,1.1-1.7,1.7c-0.2,0.2-0.5,0.4-0.7,0.7c-0.6,0.5-1.1,1.1-1.7,1.6
			c-0.3,0.2-0.5,0.5-0.8,0.7c-0.6,0.5-1.1,1-1.7,1.4c-0.1,0-0.1,0.1-0.1,0.1l-2.2,6.7c14.2-10.4,24.6-26.7,28.2-45.7
			c-0.4,0.1-0.8,0.1-1.2,0.1c0,0,0,0.1,0,0.1C281.4,194,281.1,195.1,280.8,196.1z"/>
		<path class="st1" d="M175.6,229.5c-0.6-0.5-1.1-1-1.7-1.6c-0.2-0.2-0.5-0.4-0.7-0.7c-0.6-0.6-1.1-1.1-1.7-1.7
			c-0.2-0.2-0.4-0.4-0.6-0.6c-0.6-0.6-1.1-1.2-1.7-1.8c-0.2-0.2-0.4-0.4-0.5-0.6c-0.6-0.7-1.1-1.3-1.6-2c-0.1-0.2-0.3-0.4-0.4-0.6
			c-0.5-0.7-1.1-1.4-1.6-2.1c-0.1-0.2-0.3-0.3-0.4-0.5c-0.5-0.7-1-1.5-1.5-2.3c-0.1-0.2-0.2-0.3-0.3-0.5c-0.5-0.8-1-1.6-1.5-2.4
			c-0.1-0.1-0.2-0.3-0.3-0.4c-0.5-0.8-1-1.7-1.4-2.6c-0.1-0.1-0.1-0.3-0.2-0.4c-0.5-0.9-0.9-1.8-1.3-2.7c-0.1-0.1-0.1-0.2-0.2-0.3
			c-0.4-0.9-0.8-1.9-1.2-2.8c0-0.1-0.1-0.2-0.1-0.3c-0.4-1-0.8-2-1.1-3c0-0.1-0.1-0.2-0.1-0.2c-0.4-1-0.7-2-1-3.1
			c0-0.1,0-0.1-0.1-0.2c-0.3-1.1-0.6-2.1-0.9-3.2c0,0,0,0,0,0c-0.4,0-0.8-0.1-1.2-0.1c3.7,19.2,14.2,35.5,28.7,45.9l-2.9-7.2
			c-0.6-0.5-1.1-0.9-1.7-1.4C176.1,229.9,175.9,229.7,175.6,229.5z"/>
		<path class="st1" d="M234.8,96.5l2.9,6.6c27,9.3,46.6,37,46.6,69.6c0,0.2,0,0.3,0,0.5c2.9,2.5,7.3,6.5,9.3,10.2
			c0.1-1.1,0.2-2.3,0.3-3.4c0.1-0.7,0.1-1.4,0.1-2.1c0-0.5,0.1-1,0.1-1.4c0.1-1.2,0.1-2.5,0.1-3.7c0,0.8,0,1.7-0.1,2.5
			C293.1,136.7,268.1,104.8,234.8,96.5z"/>
		<path class="st1" d="M150.8,172.3c0.1-32.2,19.4-59.5,45.9-69l2.7-6.6c-32.9,8.7-57.5,40.4-58.5,78.5c0-0.8-0.1-1.7-0.1-2.5
			c0,1.3,0,2.6,0.1,3.9c0,0.4,0,0.8,0.1,1.1c0.1,0.9,0.1,1.9,0.2,2.8c0,0.4,0.1,0.8,0.1,1.1c0,0.1,0,0.2,0,0.3
			C143.9,178.2,148.4,174.3,150.8,172.3z"/>
		<path class="st2" d="M294.2,175.2c0-0.8,0.1-1.7,0.1-2.5c0-40.6-26.7-74.3-62-81.8l2.5,5.6C268.1,104.8,293.1,136.7,294.2,175.2z"
			/>
		<path class="st2" d="M199.4,96.7l2.3-5.6c-34.8,7.9-60.9,41.4-60.9,81.6c0,0.8,0,1.7,0.1,2.5C142,137.1,166.6,105.4,199.4,96.7z"
			/>
		<path class="st3" d="M255.4,124.8c-3.9-1.1-6-3.8-6.8-7.6c-0.8,3.8-2.9,6.5-6.8,7.6c3.4,1,5.6,3.5,6.8,7.6
			C249.7,128.4,252,125.8,255.4,124.8z"/>
		<path class="st3" d="M178.4,124.8c-1,5-3.7,8.5-8.9,9.9c4.4,1.3,7.3,4.6,8.9,9.9c1.5-5.3,4.5-8.6,8.9-9.9
			C182.1,133.3,179.4,129.8,178.4,124.8z"/>
		<path class="st3" d="M257.7,143.3c0.7-2.5,2.1-4.1,4.2-4.7c-2.4-0.7-3.7-2.4-4.2-4.7c-0.5,2.4-1.8,4-4.2,4.7
			C255.6,139.2,257,140.8,257.7,143.3z"/>
		<path class="st3" d="M192.6,118c-2.4-0.7-3.7-2.4-4.2-4.7c-0.5,2.4-1.8,4-4.2,4.7c2.1,0.6,3.5,2.2,4.2,4.7
			C189.1,120.2,190.5,118.6,192.6,118z"/>
		<path class="st3" d="M267.9,152.2c0.7-2.5,2.1-4.1,4.2-4.7c-2.4-0.7-3.7-2.4-4.2-4.7c-0.5,2.4-1.8,4-4.2,4.7
			C265.8,148.1,267.2,149.6,267.9,152.2z"/>
		<path class="st3" d="M165.3,152.2c0.7-2.5,2.1-4.1,4.2-4.7c-2.4-0.7-3.7-2.4-4.2-4.7c-0.5,2.4-1.8,4-4.2,4.7
			C163.2,148.1,164.6,149.6,165.3,152.2z"/>
		<path class="st5" d="M205.4,105.6L192,144l17.3,0.2c-11.5,1.3-17.9,7.4-17.9,7.4l-2.3,5.7c9-2.6,18.6-3.7,28.6-3.8
			c10,0,19.5,1.2,28.6,3.8l-2.3-5.7c0,0-6.4-6.1-17.9-7.4l17.3-0.2L230,105.6L223.9,88l-6.2-17.6v0l0,0l0,0v0l-6,17.1L205.4,105.6z"
			/>
		<path class="st5" d="M248.6,150.1l5.7,10.2l21,10.6C275.3,171,268.4,156.8,248.6,150.1z"/>
		<path class="st5" d="M217.7,158.4C217.7,158.4,217.7,158.4,217.7,158.4C217.7,158.4,217.7,158.4,217.7,158.4L217.7,158.4
			c-24.9,1-45.9,8.6-62.4,23.8c18-7.3,37-11.7,56.7-13.5c3.8-0.3,7.6-0.3,11.3,0c19.6,1.8,38.5,6.1,56.4,13.4l0-0.1
			C263.4,166.9,242.5,159.5,217.7,158.4L217.7,158.4z"/>
		<path class="st5" d="M160.2,171l21-10.6l5.7-10.2C167,156.8,160.2,171,160.2,171z"/>
		<path class="st3" d="M215.7,208.7v-9.4c0,0-1.8-1.3-1.8-3.5c0-2.2,2.9-4.2,2.9-4.2l0.6-1.9l0.6,1.9c0,0,2.9,2,2.9,4.2
			c0,2.2-1.8,3.5-1.8,3.5v9.4h3.6c1-4.1,3-7.9,5.6-11.5l-10.9-19.7l-10.9,19.7c2.6,3.6,4.5,7.4,5.6,11.5H215.7z"/>
		<path class="st6" d="M270.6,191.5c-16.7,2.9-31.6,9.1-42.2,23.5v10.6v2.3c0.6-0.8,1.1-1.6,1.7-2.4
			C240.2,211.8,253.8,200.5,270.6,191.5z"/>
		<path class="st7" d="M255.5,224.9c5.4-8.8,10.7-16.9,15.8-24.3c-13.3,6.5-24.9,14.4-33.4,24.8c-4.7,5.7-8.5,12.2-11.1,19.7v9.9
			v0.5v18.5c3.7-6.6,7.4-13.1,11-19.4C243.9,244,249.8,234.1,255.5,224.9z"/>
		<path class="st6" d="M163.9,191.5c17.1,9.1,30.8,20.7,41,34.8c0.4,0.6,0.8,1.1,1.2,1.7v-1.7V215
			C195.5,200.5,180.6,194.4,163.9,191.5z"/>
		<path class="st7" d="M207.7,245c-2.4-7-5.9-13.1-10.2-18.6c-8.6-11-20.5-19.2-34.3-25.9c5.4,8,11.1,16.8,17,26.4
			c5.5,9,11.3,18.7,17.2,28.9c3.4,5.9,6.8,11.9,10.3,18.1v-18.4V245z"/>
		<path class="st5" d="M221.7,233.2h-9v22.2v0.5v21.4c0,2.5,2,4.5,4.5,4.5h0c2.5,0,4.5-2,4.5-4.5v-21.3v-0.8V233.2z"/>
		<polygon class="st3" points="212.5,220.9 212.5,226 212.5,227.1 221.7,227.1 221.7,225.8 221.7,220.9 		"/>
		<path class="st5" d="M220.7,215h-7.1c-0.6,0-1,0.5-1,1v2.3h9.2V216C221.7,215.4,221.3,215,220.7,215z"/>
		<path class="st3" d="M200.7,139.7c16.8-10.1,14-55.7,14-55.7C212.6,105.3,208.3,124.3,200.7,139.7z"/>
	</g>
	<g>
		<g>
			<path class="st3" d="M107.1,323c-8.1,0-11.3-5.2-11.3-11.8c0-6.3,3.9-11.8,11.6-11.8c1.5,0,2.8,0.2,4.2,0.6
				c0.3,0.1,0.5,0.1,0.9,0.1c0.3,0,0.6,0,0.8-0.1l0.6-0.3v7.7l-0.8-0.9c-1.3-1.5-3.7-2.4-5.7-2.4c-4.3,0-6,3.4-6,7
				c0,3.9,1.7,7,6.2,7c2.3,0,5.1-1,6.6-2.5l0.8-0.8v6.3l-0.2,0.1c-0.5,0.3-1.1,0.5-1.8,0.7C111,322.8,108.8,323,107.1,323z"/>
			<path class="st3" d="M140.2,311.2c0,6-4.8,11.6-11.8,11.6s-11.8-5.6-11.8-11.6c0-5.9,4.9-11.6,11.8-11.6c1.7,0,3.4,0.3,4.8,1
				C137.5,302.6,140.2,306.8,140.2,311.2z M134.5,311.2c0-3.4-2.3-6.8-6.1-6.8c-3.9,0-6.1,3.5-6.1,6.8c0,3.4,2.2,6.8,6.1,6.8
				C132.3,318.1,134.5,314.6,134.5,311.2z"/>
			<path class="st3" d="M152.7,317c0.1-0.3,0.1-0.6,0.2-0.8l2.7-10.1c0.4-1.4,1.1-4.5,0.9-5.7l-0.1-0.5h7.6l-0.5,0.6
				c-1,1.4-1.9,4.1-2.4,5.8l-3,10.1c-0.4,1.4-1.2,4.4-1.1,5.7l0.1,0.5h-9.2l0.1-0.5c0-2-0.5-3.8-1.1-5.7l-3-10.1
				c-0.5-1.7-1.4-4.4-2.4-5.8l-0.5-0.6h7.7l-0.1,0.5c0,2,0.4,3.8,0.9,5.7l2.7,10.1c0,0.1,0.1,0.3,0.1,0.4
				C152.6,316.8,152.7,316.9,152.7,317z"/>
			<path class="st3" d="M184.4,317.2l0.7-0.3l-0.5,5.7h-18.1l0.3-0.6c0.5-1.3,0.7-4.2,0.7-5.7v-10.1c0-1.5-0.2-4.5-0.7-5.7l-0.3-0.6
				h17.2l0.5,5.7l-0.7-0.3c-1.3-0.5-4.3-0.6-5.9-0.6h-4.8v4.2h3.2c1.5,0,4.5-0.1,5.8-0.6l0.7-0.3v6.6l-0.7-0.3
				c-1.3-0.5-4.3-0.6-5.8-0.6h-3.2v4.1h5.7c1.2,0,3.1-0.1,4.6-0.3C183.6,317.4,184,317.3,184.4,317.2z"/>
			<path class="st3" d="M205.2,307.2c0,2.9-1.4,5.5-4.5,6.6c0.7,1.1,1.6,2.5,2.6,4c1.1,1.6,2.3,3.1,3.3,4l0.9,0.7h-8.8l0-0.4
				c0-0.9-0.7-2.4-1.5-4c-0.8-1.4-1.7-2.8-2.3-3.6h-0.6v1.8c0,1.5,0.1,4.4,0.6,5.7l0.2,0.6H188l0.3-0.6c0.5-1.3,0.7-4.2,0.7-5.7
				v-10.1c0-1.5-0.2-4.5-0.7-5.7l-0.3-0.6h9.1c2.5,0,4.5,0.7,5.9,2C204.4,303.2,205.2,305,205.2,307.2z M197.1,304.7h-2.8v5h2.8
				c1.7,0,2.7-1,2.7-2.5C199.9,305.7,198.8,304.7,197.1,304.7z"/>
			<path class="st3" d="M219.6,300.5l-0.3-0.6h7.2l-0.2,0.6c-0.5,1.3-0.6,4.3-0.6,5.7v11.6h2.9c1.5,0,4.5-0.1,5.9-0.6l0.7-0.3
				l-0.5,5.7h-15.3l0.3-0.6c0.5-1.3,0.7-4.2,0.7-5.7v-10.1c0-0.7,0-1.8-0.1-3C220.1,302.2,219.9,301.1,219.6,300.5z"/>
			<path class="st3" d="M256.1,317.2l0.7-0.3l-0.5,5.7h-18.1l0.3-0.6c0.5-1.3,0.7-4.2,0.7-5.7v-10.1c0-1.5-0.2-4.5-0.7-5.7l-0.3-0.6
				h17.2l0.5,5.7l-0.7-0.3c-1.3-0.5-4.3-0.6-5.9-0.6h-4.8v4.2h3.2c1.5,0,4.5-0.1,5.8-0.6l0.7-0.3v6.6l-0.7-0.3
				c-1.3-0.5-4.3-0.6-5.8-0.6h-3.2v4.1h5.7c1.2,0,3.1-0.1,4.6-0.3C255.4,317.4,255.8,317.3,256.1,317.2z"/>
			<path class="st3" d="M264.5,316.3v-11.6c-1.6,0-4.2,0.2-5.4,0.6l-0.7,0.3l0.5-5.7h16.5l0.6,5.7l-0.7-0.3
				c-1.2-0.5-3.7-0.6-5.4-0.6v11.6c0,1.5,0.2,4.4,0.7,5.7l0.3,0.6h-7.2l0.2-0.6c0.1-0.3,0.2-0.7,0.3-1.2
				C264.5,319.3,264.5,317.4,264.5,316.3z"/>
			<path class="st3" d="M284.1,316.3v-11.6c-1.6,0-4.2,0.2-5.4,0.6l-0.7,0.3l0.5-5.7H295l0.6,5.7l-0.7-0.3c-1.2-0.5-3.7-0.6-5.4-0.6
				v11.6c0,1.5,0.2,4.4,0.7,5.7l0.3,0.6h-7.2l0.2-0.6c0.1-0.3,0.2-0.7,0.3-1.2C284,319.3,284.1,317.4,284.1,316.3z"/>
			<path class="st3" d="M316.1,317.2l0.7-0.3l-0.5,5.7h-18.1l0.3-0.6c0.5-1.3,0.7-4.2,0.7-5.7v-10.1c0-1.5-0.2-4.5-0.7-5.7l-0.3-0.6
				h17.2l0.5,5.7l-0.7-0.3c-1.3-0.5-4.3-0.6-5.9-0.6h-4.8v4.2h3.2c1.5,0,4.5-0.1,5.8-0.6l0.7-0.3v6.6l-0.7-0.3
				c-1.3-0.5-4.3-0.6-5.8-0.6h-3.2v4.1h5.7c1.2,0,3.1-0.1,4.6-0.3C315.4,317.4,315.8,317.3,316.1,317.2z"/>
			<path class="st3" d="M337,307.2c0,2.9-1.4,5.5-4.5,6.6c0.7,1.1,1.6,2.5,2.6,4c1.1,1.6,2.3,3.1,3.3,4l0.9,0.7h-8.8l0-0.4
				c0-0.9-0.7-2.4-1.5-4c-0.8-1.4-1.7-2.8-2.3-3.6h-0.6v1.8c0,1.5,0.1,4.4,0.6,5.7l0.2,0.6h-7.2l0.3-0.6c0.5-1.3,0.7-4.2,0.7-5.7
				v-10.1c0-1.5-0.2-4.5-0.7-5.7l-0.3-0.6h9.1c2.5,0,4.5,0.7,5.9,2C336.2,303.2,337,305,337,307.2z M328.9,304.7h-2.8v5h2.8
				c1.7,0,2.7-1,2.7-2.5C331.6,305.7,330.6,304.7,328.9,304.7z"/>
		</g>
		<g>
			<path class="st3" d="M171.3,349.6h-1.9l-3.8-13.7l-3.6,13.7H160l-6-17.7h2.2l4.7,14l3.6-14h2l3.9,14l4.5-14h2.2L171.3,349.6z"/>
			<path class="st3" d="M184.3,349.6v-17.7h2.1v17.7H184.3z"/>
			<path class="st3" d="M194.6,349.6l-0.9-1.8l12.3-13.8h-11.4v-2.1h13.5l0.9,1.7l-12.3,13.9h12.5v2.1H194.6z"/>
			<path class="st3" d="M230.1,349.6l-2.9-6.1h-8.5l-2.8,6.1h-2.3l8.4-17.7h2.1l8.3,17.7H230.1z M223.1,334.4l-3.3,7h6.6
				L223.1,334.4z"/>
			<path class="st3" d="M254.1,341.2c-0.9,0.7-1.6,0.9-2.7,1.1l4.1,7.3h-2.4l-4.1-7.3h-7v7.3h-2.1v-17.7h8.9c2.9,0,3.7,0.1,5,1
				c1.4,0.9,2.2,2.6,2.2,4.2C255.9,338.6,255.2,340.2,254.1,341.2z M249.9,334h-8v6.2h7.6c1.6,0,2.3,0,3-0.5
				c0.8-0.5,1.2-1.6,1.2-2.5C253.8,334.8,252,334,249.9,334z"/>
			<path class="st3" d="M273.2,349.6h-9v-17.7h8.7c6.5,0,8.2,6.3,8.2,8.9C281.2,345.2,277.8,349.6,273.2,349.6z M273,334h-6.6v13.5
				h6.9c3.5,0,5.9-3.6,5.9-6.8C279.1,336.9,276.5,334,273,334z"/>
		</g>
		<g>
			<g>
				<rect x="117.3" y="339.2" class="st3" width="25.3" height="2.2"/>
			</g>
			<g>
				<rect x="292.5" y="339.2" class="st3" width="25.3" height="2.2"/>
			</g>
		</g>
	</g>
</g>
</svg>
